<svg width="174" height="54" viewBox="0 0 174 54" fill="none" xmlns="http://www.w3.org/2000/svg">
<g clip-path="url(#clip0_69_264)">
<path d="M91.6747 13.5676C91.6747 15.5135 90.1071 17.0811 88.1611 17.0811C86.2152 17.0811 84.6476 15.5135 84.6476 13.5676C84.6476 11.6216 86.1611 10.0541 88.1611 10.0541C90.1611 10.1081 91.6747 11.6757 91.6747 13.5676ZM77.1882 20.6486C77.1882 20.973 77.1882 21.5135 77.1882 21.5135C77.1882 21.5135 75.5125 19.3514 71.9449 19.3514C66.053 19.3514 61.4584 23.8378 61.4584 30.0541C61.4584 36.2162 65.999 40.7568 71.9449 40.7568C75.5665 40.7568 77.1882 38.5405 77.1882 38.5405V39.4595C77.1882 39.8919 77.5125 40.2162 77.9449 40.2162H82.3233V19.8919C82.3233 19.8919 78.3233 19.8919 77.9449 19.8919C77.5125 19.8919 77.1882 20.2703 77.1882 20.6486ZM77.1882 33.6757C76.3774 34.8649 74.7557 35.8919 72.8098 35.8919C69.3503 35.8919 66.7017 33.7297 66.7017 30.0541C66.7017 26.3784 69.3503 24.2162 72.8098 24.2162C74.7017 24.2162 76.4314 25.2973 77.1882 26.4324V33.6757ZM85.5665 19.8919H90.7557V40.2162H85.5665V19.8919ZM163.08 19.3514C159.512 19.3514 157.837 21.5135 157.837 21.5135V10.1081H152.648V40.2162C152.648 40.2162 156.648 40.2162 157.026 40.2162C157.458 40.2162 157.783 39.8378 157.783 39.4595V38.5405C157.783 38.5405 159.458 40.7568 163.026 40.7568C168.918 40.7568 173.512 36.2162 173.512 30.0541C173.512 23.8919 168.918 19.3514 163.08 19.3514ZM162.215 35.8378C160.215 35.8378 158.648 34.8108 157.837 33.6216V26.3784C158.648 25.2973 160.377 24.1622 162.215 24.1622C165.675 24.1622 168.323 26.3243 168.323 30C168.323 33.6757 165.675 35.8378 162.215 35.8378ZM149.945 28.1622V40.2703H144.756V28.7568C144.756 25.4054 143.675 24.0541 140.756 24.0541C139.188 24.0541 137.567 24.8649 136.54 26.0541V40.2162H131.35V19.8919H135.458C135.891 19.8919 136.215 20.2703 136.215 20.6486V21.5135C137.729 19.9459 139.729 19.3514 141.729 19.3514C143.999 19.3514 145.891 20 147.404 21.2973C149.242 22.8108 149.945 24.7568 149.945 28.1622ZM118.756 19.3514C115.188 19.3514 113.512 21.5135 113.512 21.5135V10.1081H108.323V40.2162C108.323 40.2162 112.323 40.2162 112.702 40.2162C113.134 40.2162 113.458 39.8378 113.458 39.4595V38.5405C113.458 38.5405 115.134 40.7568 118.702 40.7568C124.594 40.7568 129.188 36.2162 129.188 30.0541C129.242 23.8919 124.648 19.3514 118.756 19.3514ZM117.891 35.8378C115.891 35.8378 114.323 34.8108 113.512 33.6216V26.3784C114.323 25.2973 116.053 24.1622 117.891 24.1622C121.35 24.1622 123.999 26.3243 123.999 30C123.999 33.6757 121.35 35.8378 117.891 35.8378ZM103.837 19.3514C105.404 19.3514 106.215 19.6216 106.215 19.6216V24.4324C106.215 24.4324 101.891 22.973 99.1882 26.0541V40.2703H93.999V19.8919C93.999 19.8919 97.999 19.8919 98.3774 19.8919C98.8098 19.8919 99.1341 20.2703 99.1341 20.6486V21.5135C100.107 20.3784 102.215 19.3514 103.837 19.3514ZM49.9449 38.3784C49.6747 37.7297 49.4044 37.027 49.1341 36.4324C48.7017 35.4595 48.2692 34.5405 47.8909 33.6757L47.8368 33.6216C44.1071 25.5135 40.1071 17.2973 35.8909 9.18919L35.7287 8.86486C35.2963 8.05405 34.8638 7.18919 34.4314 6.32432C33.8909 5.35135 33.3503 4.32432 32.4855 3.35135C30.7557 1.18919 28.2692 0 25.6206 0C22.9179 0 20.4855 1.18919 18.7017 3.24324C17.8909 4.21622 17.2963 5.24324 16.7557 6.21622C16.3233 7.08108 15.8909 7.94595 15.4584 8.75676L15.2963 9.08108C11.1341 17.1892 7.08006 25.4054 3.35033 33.5135L3.29627 33.6216C2.91789 34.4865 2.48546 35.4054 2.05303 36.3784C1.78276 36.973 1.51249 37.6216 1.24222 38.3243C0.539516 40.3243 0.323299 42.2162 0.59357 44.1622C1.18816 48.2162 3.89087 51.6216 7.6206 53.1351C9.026 53.7297 10.4855 54 11.999 54C12.4314 54 12.9719 53.9459 13.4044 53.8919C15.1882 53.6757 17.026 53.0811 18.8098 52.0541C21.026 50.8108 23.1341 49.027 25.5125 46.4324C27.8909 49.027 30.053 50.8108 32.2152 52.0541C33.999 53.0811 35.8368 53.6757 37.6206 53.8919C38.053 53.9459 38.5936 54 39.026 54C40.5395 54 42.053 53.7297 43.4044 53.1351C47.1882 51.6216 49.8368 48.1622 50.4314 44.1622C50.8638 42.2703 50.6476 40.3784 49.9449 38.3784ZM25.5665 41.1892C22.6476 37.5135 20.7557 34.0541 20.1071 31.1351C19.8368 29.8919 19.7828 28.8108 19.9449 27.8378C20.053 26.973 20.3774 26.2162 20.8098 25.5676C21.8368 24.1081 23.5665 23.1892 25.5665 23.1892C27.5665 23.1892 29.3503 24.0541 30.3233 25.5676C30.7557 26.2162 31.0801 26.973 31.1882 27.8378C31.3503 28.8108 31.2963 29.9459 31.026 31.1351C30.3774 34 28.4855 37.4595 25.5665 41.1892ZM47.1341 43.7297C46.7557 46.5405 44.8638 48.973 42.2152 50.0541C40.9179 50.5946 39.5125 50.7568 38.1071 50.5946C36.7557 50.4324 35.4044 50 33.999 49.1892C32.053 48.1081 30.1071 46.4324 27.8368 43.9459C31.4044 39.5676 33.5665 35.5676 34.3774 32C34.7557 30.3243 34.8098 28.8108 34.6476 27.4054C34.4314 26.0541 33.9449 24.8108 33.1882 23.7297C31.5125 21.2973 28.7017 19.8919 25.5665 19.8919C22.4314 19.8919 19.6206 21.3514 17.9449 23.7297C17.1882 24.8108 16.7017 26.0541 16.4855 27.4054C16.2692 28.8108 16.3233 30.3784 16.7557 32C17.5665 35.5676 19.7828 39.6216 23.2963 44C21.0801 46.4865 19.0801 48.1622 17.1341 49.2432C15.7287 50.0541 14.3774 50.4865 13.026 50.6486C11.5665 50.8108 10.1611 50.5946 8.91789 50.1081C6.26925 49.027 4.37735 46.5946 3.99898 43.7838C3.83681 42.4324 3.94492 41.0811 4.48546 39.5676C4.64762 39.027 4.91789 38.4865 5.18816 37.8378C5.56654 36.973 5.99898 36.0541 6.43141 35.1351L6.48546 35.027C10.2152 26.973 14.2152 18.7568 18.3774 10.7568L18.5395 10.4324C18.972 9.62162 19.4044 8.75676 19.8368 7.94595C20.2692 7.08108 20.7557 6.27027 21.3503 5.56757C22.4855 4.27027 23.999 3.56757 25.6747 3.56757C27.3503 3.56757 28.8638 4.27027 29.999 5.56757C30.5936 6.27027 31.0801 7.08108 31.5125 7.94595C31.9449 8.75676 32.3774 9.62162 32.8098 10.4324L32.972 10.7568C37.0801 18.8108 41.0801 27.027 44.8098 35.0811V35.1351C45.2422 36 45.6206 36.973 46.053 37.8378C46.3233 38.4865 46.5936 39.027 46.7557 39.5676C47.1882 40.973 47.3503 42.3243 47.1341 43.7297Z" fill="#373B3F"/>
</g>
<defs>
<clipPath id="clip0_69_264">
<rect width="173.027" height="54" fill="white" transform="translate(0.486572)"/>
</clipPath>
</defs>
</svg>
