<svg width="180" height="54" viewBox="0 0 180 54" fill="none" xmlns="http://www.w3.org/2000/svg">
<g clip-path="url(#clip0_69_275)">
<path d="M111.513 42.1868C101.128 49.841 86.0767 53.9248 73.1175 53.9248C54.9466 53.9248 38.5882 47.2041 26.2124 36.0262C25.24 35.1472 26.1112 33.9493 27.278 34.6338C40.6339 42.4046 57.148 47.0796 74.2065 47.0796C85.7111 47.0796 98.3669 44.6993 110.004 39.7599C111.762 39.0132 113.232 40.9111 111.513 42.1868Z" fill="#373B3F"/>
<path d="M115.83 37.2469C114.508 35.5512 107.056 36.4457 103.711 36.8424C102.692 36.9669 102.537 36.0801 103.455 35.4423C109.39 31.2651 119.128 32.4708 120.264 33.871C121.4 35.2789 119.969 45.0411 114.391 49.7005C113.536 50.4161 112.719 50.035 113.1 49.086C114.352 45.959 117.161 38.9504 115.83 37.2469Z" fill="#373B3F"/>
<path d="M103.944 5.9538V1.89335C103.944 1.27884 104.411 0.866577 104.971 0.866577H123.15C123.733 0.866577 124.2 1.28662 124.2 1.89335V5.3704C124.192 5.9538 123.702 6.7161 122.831 7.92179L113.411 21.371C116.911 21.2855 120.606 21.8066 123.78 23.5957C124.495 24.0002 124.69 24.5914 124.744 25.1748V29.5075C124.744 30.0987 124.091 30.7909 123.406 30.4331C117.814 27.5006 110.385 27.1817 104.201 30.4643C103.571 30.8065 102.91 30.122 102.91 29.5308V25.4159C102.91 24.7547 102.917 23.6268 103.579 22.6234L114.492 6.9728H104.994C104.411 6.9728 103.944 6.56053 103.944 5.9538Z" fill="#373B3F"/>
<path d="M37.6315 31.2888H32.1009C31.572 31.2499 31.1519 30.8532 31.113 30.3476V1.96342C31.113 1.39558 31.5875 0.944414 32.1787 0.944414H37.3359C37.8727 0.967735 38.3005 1.38002 38.3394 1.89341V5.60381H38.4405C39.7862 2.01786 42.3143 0.345459 45.7213 0.345459C49.1828 0.345459 51.3452 2.01786 52.901 5.60381C54.2389 2.01786 57.2803 0.345459 60.5396 0.345459C62.8576 0.345459 65.3934 1.30223 66.9414 3.44913C68.6916 5.83717 68.3337 9.30644 68.3337 12.3479L68.326 30.2621C68.326 30.8299 67.8515 31.2888 67.2603 31.2888H61.7375C61.1852 31.2499 60.7418 30.8066 60.7418 30.2621V15.2182C60.7418 14.0203 60.8507 11.0333 60.5862 9.89761C60.174 7.99185 58.9372 7.45512 57.3348 7.45512C55.9969 7.45512 54.5967 8.34967 54.0289 9.78094C53.461 11.2122 53.5155 13.608 53.5155 15.2182V30.2621C53.5155 30.8299 53.041 31.2888 52.4498 31.2888H46.927C46.3669 31.2499 45.9313 30.8066 45.9313 30.2621L45.9235 15.2182C45.9235 12.0523 46.4447 7.39289 42.5165 7.39289C38.5416 7.39289 38.6972 11.9356 38.6972 15.2182V30.2621C38.6972 30.8299 38.2227 31.2888 37.6315 31.2888Z" fill="#373B3F"/>
<path d="M139.85 0.345459C148.057 0.345459 152.498 7.39289 152.498 16.3539C152.498 25.0115 147.59 31.88 139.85 31.88C131.792 31.88 127.405 24.8326 127.405 16.0505C127.405 7.21398 131.846 0.345459 139.85 0.345459ZM139.897 6.14054C135.821 6.14054 135.564 11.6945 135.564 15.156C135.564 18.6252 135.51 26.0305 139.85 26.0305C144.136 26.0305 144.339 20.0565 144.339 16.4161C144.339 14.0203 144.237 11.1577 143.514 8.88639C142.892 6.91062 141.655 6.14054 139.897 6.14054Z" fill="#373B3F"/>
<path d="M163.14 31.2888H157.632C157.08 31.2499 156.637 30.8066 156.637 30.2621L156.629 1.87007C156.676 1.3489 157.135 0.944414 157.695 0.944414H162.821C163.303 0.967735 163.7 1.29445 163.809 1.73783V6.07831H163.91C165.458 2.19677 167.628 0.345459 171.447 0.345459C173.929 0.345459 176.348 1.24 177.903 3.69027C179.35 5.96163 179.35 9.78094 179.35 12.5268V30.3943C179.288 30.8921 178.829 31.2888 178.285 31.2888H172.738C172.233 31.2499 171.813 30.8766 171.758 30.3943V14.9771C171.758 11.8734 172.116 7.33066 168.297 7.33066C166.951 7.33066 165.714 8.23299 165.1 9.60202C164.322 11.3367 164.221 13.0635 164.221 14.9771V30.2621C164.213 30.8299 163.731 31.2888 163.14 31.2888Z" fill="#373B3F"/>
<path d="M89.4527 17.7306V16.5327C85.4545 16.5327 81.2307 17.3883 81.2307 22.1022C81.2307 24.4902 82.4675 26.1082 84.5911 26.1082C86.1468 26.1082 87.5392 25.1514 88.4182 23.5957C89.5072 21.6821 89.4527 19.8853 89.4527 17.7306ZM95.03 31.2109C94.6644 31.5376 94.1354 31.561 93.7232 31.3432C91.8874 29.8186 91.5607 29.1107 90.5495 27.6561C87.5158 30.752 85.3689 31.6777 81.4329 31.6777C76.7813 31.6777 73.1565 28.8073 73.1565 23.059C73.1565 18.5707 75.5912 15.5137 79.0527 14.0202C82.0552 12.6978 86.2479 12.4645 89.4527 12.0989V11.3832C89.4527 10.0686 89.5538 8.51292 88.7838 7.37725C88.107 6.35825 86.8158 5.9382 85.6801 5.9382C83.5721 5.9382 81.6896 7.01943 81.2307 9.25967C81.1374 9.75751 80.7718 10.2476 80.2739 10.2709L74.9067 9.69527C74.4555 9.59416 73.9577 9.22856 74.0821 8.53626C75.319 2.03334 81.1918 0.0731201 86.4502 0.0731201C89.1416 0.0731201 92.6575 0.788753 94.7811 2.82675C97.4725 5.33925 97.2158 8.69183 97.2158 12.34V20.9587C97.2158 23.549 98.2892 24.6847 99.3005 26.0848C99.6583 26.5827 99.7361 27.1816 99.2849 27.555C98.157 28.4962 96.1501 30.2464 95.0455 31.2265L95.03 31.2109Z" fill="#373B3F"/>
<path d="M16.9481 17.7306V16.5327C12.9499 16.5327 8.72607 17.3883 8.72607 22.1022C8.72607 24.4902 9.96286 26.1082 12.0864 26.1082C13.6422 26.1082 15.0345 25.1514 15.9135 23.5957C17.0025 21.6821 16.9481 19.8853 16.9481 17.7306ZM22.5253 31.2109C22.1598 31.5376 21.6308 31.561 21.2185 31.3432C19.3828 29.8186 19.0561 29.1107 18.0449 27.6561C15.0112 30.752 12.8643 31.6777 8.92831 31.6777C4.27669 31.6777 0.651855 28.8073 0.651855 23.059C0.651855 18.5707 3.08656 15.5137 6.54805 14.0202C9.5506 12.6978 13.7433 12.4645 16.9481 12.0989V11.3832C16.9481 10.0686 17.0492 8.51292 16.2791 7.37725C15.6024 6.35825 14.3111 5.9382 13.1754 5.9382C11.0674 5.9382 9.185 7.01943 8.72607 9.25967C8.63272 9.75751 8.26713 10.2476 7.7693 10.2709L2.40205 9.69527C1.95088 9.59416 1.45305 9.22856 1.57751 8.53626C2.81431 2.03334 8.68717 0.0731201 13.9455 0.0731201C16.6369 0.0731201 20.1529 0.788753 22.2764 2.82675C24.9678 5.33925 24.7111 8.69183 24.7111 12.34V20.9587C24.7111 23.549 25.7846 24.6847 26.7958 26.0848C27.1536 26.5827 27.2314 27.1816 26.7803 27.555C25.6524 28.4962 23.6455 30.2464 22.5409 31.2265L22.5253 31.2109Z" fill="#373B3F"/>
</g>
<defs>
<clipPath id="clip0_69_275">
<rect width="178.912" height="54" fill="white" transform="translate(0.543945)"/>
</clipPath>
</defs>
</svg>
