<svg width="201" height="54" viewBox="0 0 201 54" fill="none" xmlns="http://www.w3.org/2000/svg">
<path d="M28.287 50.5193C25.2903 51.0471 22.2408 51.2054 19.0864 51.6269L9.46475 23.3615V52.84C6.46804 53.1563 3.73415 53.5781 0.89502 54V0H8.88677L19.8223 30.6391V0H28.287V50.5193ZM44.8485 19.7754C48.1084 19.7754 53.103 19.6172 56.0998 19.6172V28.0545C52.3667 28.0545 48.0032 28.0545 44.8485 28.2127V40.7637C49.7908 40.4474 54.7329 40.0252 59.7274 39.8669V47.9875L36.4361 49.8336V0H59.7274V8.43751H44.8485V19.7754ZM91.01 8.43771H82.2825V47.2501C79.4433 47.2501 76.6042 47.2501 73.8707 47.3553V8.43771H65.1432V0H91.0104L91.01 8.43771ZM104.68 19.1955H116.194V27.6328H104.68V46.7756H96.4246V0H119.927V8.43751H104.68V19.1955ZM133.596 39.3926C138.381 39.4977 143.218 39.8675 147.897 40.1307V48.4629C140.379 47.9879 132.86 47.514 125.184 47.3553V0H133.596V39.3926ZM154.995 49.043C157.676 49.2014 160.515 49.3597 163.249 49.6756V0H154.995V49.043ZM200.105 0L189.432 25.6817L200.105 54C196.95 53.5781 193.796 52.998 190.641 52.4706L184.595 36.8616L178.444 51.2054C175.394 50.6776 172.45 50.5193 169.401 50.0975L180.232 25.365L170.452 0H179.495L185.016 14.1856L190.904 0L200.105 0Z" fill="#373B3F"/>
</svg>
