<svg width="177" height="54" viewBox="0 0 177 54" fill="none" xmlns="http://www.w3.org/2000/svg">
<g clip-path="url(#clip0_69_326)">
<path d="M27.2355 0.59729C13.3656 0.59729 2.00307 11.2919 0.92334 24.8831L15.075 30.7341C16.2741 29.914 17.7227 29.4335 19.2811 29.4335C19.4207 29.4335 19.5598 29.4395 19.6977 29.4461L25.991 20.3242C25.991 20.2806 25.991 20.2383 25.991 20.1953C25.991 14.7047 30.4573 10.2378 35.9485 10.2378C41.439 10.2378 45.9053 14.7047 45.9053 20.1953C45.9053 25.6858 41.439 30.1534 35.9485 30.1534C35.8727 30.1534 35.7975 30.1534 35.7223 30.1474L26.7466 36.5517C26.7526 36.6681 26.7556 36.7869 26.7556 36.9051C26.7556 41.027 23.403 44.379 19.2817 44.379C15.6641 44.379 12.6392 41.797 11.954 38.3775L1.83296 34.1959C4.96649 45.2785 15.1484 53.4036 27.2355 53.4036C41.818 53.4036 53.6389 41.5821 53.6389 27.0013C53.6389 12.4182 41.8174 0.59729 27.2355 0.59729Z" fill="#373B3F"/>
<path d="M17.4689 40.6596L14.2256 39.3197C14.8004 40.5164 15.7947 41.5185 17.115 42.0688C19.9692 43.2578 23.2597 41.9035 24.4493 39.0469C25.0252 37.6658 25.0288 36.1408 24.4576 34.756C23.8876 33.3707 22.8121 32.2904 21.4291 31.7138C20.0569 31.1426 18.5869 31.1635 17.2953 31.6512L20.6454 33.0365C22.7506 33.9139 23.7462 36.3312 22.8688 38.4363C21.9932 40.542 19.5741 41.5376 17.4689 40.6596Z" fill="#373B3F"/>
<path d="M42.5817 20.1952C42.5817 16.537 39.6058 13.5604 35.947 13.5604C32.2888 13.5604 29.3123 16.537 29.3123 20.1952C29.3123 23.8539 32.2888 26.8293 35.947 26.8293C39.6058 26.8293 42.5817 23.8533 42.5817 20.1952ZM30.9739 20.1838C30.9739 17.4311 33.2056 15.2 35.9583 15.2C38.7111 15.2 40.9427 17.4311 40.9427 20.1838C40.9427 22.9365 38.7111 25.1676 35.9583 25.1676C33.2056 25.1676 30.9739 22.936 30.9739 20.1838Z" fill="#373B3F"/>
<path d="M81.8363 18.6624L80.0672 21.7721C78.7045 20.8201 76.8579 20.2471 75.2457 20.2471C73.4032 20.2471 72.2632 21.0099 72.2632 22.3761C72.2632 24.036 74.2884 24.4221 77.2983 25.5024C80.5339 26.6466 82.3938 27.9914 82.3938 30.9548C82.3938 35.0093 79.2053 37.2863 74.6226 37.2863C72.3891 37.2863 69.6949 36.7097 67.6238 35.4498L68.9142 32.0023C70.5968 32.891 72.6094 33.418 74.4035 33.418C76.822 33.418 77.9716 32.5257 77.9716 31.2067C77.9716 29.6972 76.2186 29.2436 73.3889 28.3065C70.164 27.2298 67.9294 25.817 67.9294 22.5372C67.9294 18.8385 70.8916 16.7142 75.1538 16.7142C78.1244 16.7142 80.5118 17.6555 81.8363 18.6624Z" fill="#373B3F"/>
<path d="M91.5001 36.9456V20.628H85.4539V17.0552H101.694V20.628H95.6656V36.9456H91.5001Z" fill="#373B3F"/>
<path d="M118.447 25.0991V28.6719H110.475V33.34H119.724V36.9456H106.311V17.0552H119.724V20.6173H110.475V25.0991H118.447Z" fill="#373B3F"/>
<path d="M129.021 33.084L127.705 36.9463H123.338L130.796 17.0558H134.989L142.657 36.9457H138.143L136.798 33.0834L129.021 33.084ZM132.869 21.8003L130.152 29.7642H135.641L132.869 21.8003Z" fill="#373B3F"/>
<path d="M156.241 36.3661L150.886 24.8472V36.9456H146.897V17.0552H150.877L157.562 31.4133L164.009 17.0552H168.024V36.9456H164.036V24.7434L158.592 36.3661H156.241Z" fill="#373B3F"/>
<path d="M176.077 19.5642C176.077 21.2736 174.796 22.339 173.326 22.339C171.85 22.339 170.567 21.2736 170.567 19.5642C170.567 17.8554 171.85 16.7971 173.326 16.7971C174.797 16.7971 176.077 17.8554 176.077 19.5642ZM171.029 19.5642C171.029 20.9943 172.059 21.8925 173.326 21.8925C174.588 21.8925 175.614 20.9943 175.614 19.5642C175.614 18.1299 174.588 17.2454 173.326 17.2454C172.063 17.2454 171.029 18.1407 171.029 19.5642ZM173.364 18.1502C174.077 18.1502 174.317 18.5274 174.317 18.9351C174.317 19.3087 174.096 19.5594 173.826 19.6871L174.465 20.885H173.942L173.403 19.8232H172.847V20.885H172.412V18.1502H173.364ZM172.851 19.4227H173.337C173.652 19.4227 173.837 19.2252 173.837 18.9769C173.837 18.7262 173.704 18.565 173.336 18.565H172.851V19.4227H172.851Z" fill="#373B3F"/>
</g>
<defs>
<clipPath id="clip0_69_326">
<rect width="176.347" height="54" fill="white" transform="translate(0.326416)"/>
</clipPath>
</defs>
</svg>
