<svg width="226" height="54" viewBox="0 0 226 54" fill="none" xmlns="http://www.w3.org/2000/svg">
<g clip-path="url(#clip0_69_300)">
<path d="M131.017 28.7365C131.017 23.4038 128.734 18.692 121.014 18.692C117.053 18.692 113.907 19.821 112.201 20.8091L113.451 25.0875C115.022 24.1021 117.528 23.2906 119.893 23.2906C123.802 23.2851 124.442 25.496 124.442 26.9175V27.2598C115.91 27.246 110.517 30.1939 110.517 36.1975C110.517 39.8658 113.255 43.3051 118.041 43.3051C120.962 43.3051 123.429 42.1265 124.903 40.2661H125.047C125.047 40.2661 126.018 44.3319 131.393 42.7779C131.119 41.0748 131.017 39.2807 131.017 37.1001V28.7365ZM124.652 34.3674C124.652 34.798 124.616 35.2452 124.489 35.6289C123.998 37.2712 122.303 38.6458 120.194 38.6458C118.414 38.6458 117.017 37.6383 117.017 35.5267C117.017 32.2973 120.583 31.4085 124.652 31.4305" fill="#373B3F"/>
<path d="M0.394287 11.4358C0.394287 11.4358 5.96717 34.2354 6.85325 37.9286C7.89659 42.2456 9.76528 43.8411 15.1588 42.7784L18.6422 28.6404C19.5228 25.1376 20.1217 22.6258 20.6903 19.0568H20.7869C21.1816 22.6617 21.7503 25.1376 22.4707 28.6514C22.4707 28.6514 23.8922 35.0745 24.6292 38.4393C25.3468 41.804 27.3673 43.9266 32.6588 42.7784L40.9505 11.4358H34.2569L31.4111 24.9941C30.6576 28.9219 29.973 32.0162 29.4403 35.6155H29.3437C28.8634 32.0548 28.2534 29.0876 27.4695 25.2398L24.5216 11.4358H17.5382L14.3914 24.8865C13.4943 28.9937 12.6552 32.2867 12.128 35.7729H12.037C11.4932 32.502 10.7562 28.3368 9.97503 24.3841C9.97503 24.3841 8.10634 14.7536 7.44669 11.4358" fill="#373B3F"/>
<path d="M59.6044 28.7365C59.6044 23.4038 57.3161 18.692 49.5957 18.692C45.6459 18.692 42.4937 19.821 40.7879 20.8091L42.0382 25.0875C43.6033 24.1021 46.1069 23.2906 48.4807 23.2906C52.3891 23.2851 53.0295 25.496 53.0295 26.9175V27.2598C44.4977 27.246 39.0986 30.1939 39.0986 36.1975C39.0986 39.8658 41.8478 43.3051 46.612 43.3051C49.5598 43.3051 52.0055 42.1265 53.4795 40.2661H53.6284C53.6284 40.2661 54.6055 44.3319 59.9742 42.7779C59.6983 41.0748 59.6044 39.2807 59.6044 37.1001V28.7365ZM53.2338 34.3674C53.2338 34.798 53.198 35.2452 53.0765 35.6289C52.5795 37.2712 50.8848 38.6458 48.7705 38.6458C47.0011 38.6458 45.599 37.6383 45.599 35.5267C45.599 32.2973 49.1651 31.4085 53.2338 31.4305" fill="#373B3F"/>
<path d="M63.0776 11.4358V42.7673H69.4482V36.1234V11.4358H63.0776Z" fill="#373B3F"/>
<path d="M150.57 11.4358V34.5528C150.57 37.7437 151.168 39.9684 152.457 41.332C153.589 42.5272 155.441 43.3056 157.647 43.3056C159.54 43.3056 161.392 42.9412 162.267 42.6238L162.19 37.6471C161.536 37.7989 160.788 37.9286 159.761 37.9286C157.586 37.9286 156.868 36.5513 156.868 33.6861V24.8368H162.417V18.8498H156.868V11.4358" fill="#373B3F"/>
<path d="M134.103 19.2356V42.7777H140.689V30.721C140.689 30.0723 140.73 29.512 140.833 28.9931C141.324 26.4509 143.253 24.8417 146.033 24.8417C146.809 24.8417 147.336 24.9272 147.921 25.0183V18.8464C147.43 18.7581 147.096 18.7112 146.491 18.7112C144.026 18.7112 141.233 20.2762 140.054 23.6851H139.891V19.2356" fill="#373B3F"/>
<path d="M73.1479 19.2356V42.7777H79.5654V28.96C79.5654 28.3113 79.6371 27.6488 79.8663 27.0499C80.388 25.6504 81.6826 24.0302 83.761 24.0302C86.3445 24.0302 87.5646 26.2108 87.5646 29.3574V42.7777H93.9657V28.7943C93.9657 28.1843 94.0513 27.4363 94.2305 26.8953C94.744 25.3082 96.1462 24.0302 98.084 24.0302C100.695 24.0302 101.959 26.1638 101.959 29.8736V42.7777H108.355V28.8965C108.355 21.6039 104.645 18.7112 100.433 18.7112C98.5808 18.7112 97.1068 19.1666 95.7818 19.9837C94.6611 20.671 93.6786 21.6398 92.798 22.9068H92.7015C91.6884 20.3728 89.3091 18.7112 86.201 18.7112C82.2153 18.7112 80.4045 20.7234 79.3391 22.4237H79.2424V19.2356" fill="#373B3F"/>
<path d="M196.883 18.179C198.142 18.179 199.202 17.522 199.34 16.6774L200.587 2.54495C200.587 1.1455 198.939 0 196.883 0C194.816 0 193.179 1.1455 193.179 2.54495L194.437 16.6774C194.57 17.522 195.624 18.179 196.883 18.179Z" fill="#373B3F"/>
<path d="M189.228 22.6011C189.851 21.497 189.816 20.2714 189.142 19.7249L177.494 11.5794C176.282 10.8728 174.469 11.7147 173.431 13.4978C172.396 15.2781 172.605 17.2766 173.792 17.9694L186.688 23.9481C187.514 24.2572 188.593 23.6831 189.228 22.59" fill="#373B3F"/>
<path d="M204.536 22.59C205.196 23.6831 206.275 24.2572 207.078 23.9646L219.974 17.9694C221.172 17.2628 221.352 15.2837 220.339 13.5033C219.304 11.7202 217.479 10.8838 216.27 11.5767L204.619 19.7138C203.973 20.2687 203.926 21.4997 204.55 22.6011" fill="#373B3F"/>
<path d="M196.883 35.832C198.142 35.832 199.202 36.489 199.34 37.3336L200.587 51.466C200.587 52.8655 198.939 53.9999 196.883 53.9999C194.816 53.9999 193.179 52.8655 193.179 51.466L194.437 37.3336C194.57 36.489 195.624 35.832 196.883 35.832Z" fill="#373B3F"/>
<path d="M204.536 31.4222C205.196 30.3264 206.275 29.7412 207.078 30.0586L219.974 36.0429C221.172 36.7357 221.352 38.7313 220.339 40.5144C219.304 42.2838 217.479 43.1256 216.27 42.4328L204.619 34.2846C203.973 33.7353 203.926 32.5097 204.55 31.4222" fill="#373B3F"/>
<path d="M189.228 31.4101C189.851 32.5114 189.816 33.7342 189.142 34.2863L177.494 42.4207C176.282 43.1273 174.469 42.2827 173.431 40.5134C172.396 38.733 172.605 36.7346 173.792 36.0418L186.688 30.0576C187.514 29.7429 188.593 30.3225 189.228 31.4101Z" fill="#373B3F"/>
<path d="M223.748 41.1931H223.908C224.126 41.1931 224.214 41.2621 224.239 41.436C224.286 41.6292 224.311 41.7589 224.358 41.8142H224.772C224.736 41.7727 224.689 41.6679 224.664 41.425C224.617 41.2152 224.51 41.0965 224.358 41.0551V41.0164C224.568 40.9695 224.689 40.8287 224.689 40.6548C224.689 40.4975 224.617 40.3843 224.546 40.3126C224.408 40.2463 224.275 40.1939 223.983 40.1939C223.723 40.1939 223.533 40.216 223.381 40.2519V41.8142H223.748V41.1931ZM223.759 40.481L223.947 40.4561C224.168 40.4561 224.286 40.5582 224.286 40.7018C224.286 40.8619 224.126 40.9364 223.922 40.9364H223.759V40.481ZM223.994 39.421C223.088 39.421 222.371 40.1276 222.371 40.9944C222.371 41.8832 223.088 42.5898 223.994 42.5898C224.91 42.5898 225.606 41.8832 225.606 40.9944C225.606 40.1276 224.91 39.421 223.994 39.421ZM223.994 39.7384C224.689 39.7384 225.205 40.3015 225.205 40.9944C225.205 41.6927 224.689 42.2724 223.994 42.2613C223.298 42.2613 222.771 41.6927 222.771 40.9944C222.771 40.3015 223.298 39.7384 223.983 39.7384" fill="#373B3F"/>
</g>
<defs>
<clipPath id="clip0_69_300">
<rect width="225.211" height="54" fill="white" transform="translate(0.394287)"/>
</clipPath>
</defs>
</svg>
