<svg width="616" height="346" viewBox="0 0 616 346" fill="none" xmlns="http://www.w3.org/2000/svg">
<g clip-path="url(#clip0_100_765)">
<rect width="615.531" height="345.709" rx="25" fill="url(#paint0_linear_100_765)"/>
<g clip-path="url(#clip1_100_765)">
<path fill-rule="evenodd" clip-rule="evenodd" d="M377.979 69L339.998 146.762L272 286H408.004H444.946L414.183 223.181H402.856H363.55L383.203 182.939L384.972 179.319L384.863 179.267L438.389 69.7531L438.02 69H377.979ZM442.162 223.181H442.095L472.866 286H544L481.553 158.128H410.394L422.509 182.939L442.162 223.181Z" fill="url(#paint1_linear_100_765)" fill-opacity="0.1"/>
</g>
<path fill-rule="evenodd" clip-rule="evenodd" d="M609.551 622.22L445.44 286.5H444.961L359.115 462.56L441.449 630.78L440.551 631.22L358.56 463.7L254.449 677.219L253.551 676.781L358.003 462.561L327.932 401.123L207.449 648.219L206.551 647.781L327.375 399.984L302.704 349.577L168.449 624.22L167.551 623.78L302.147 348.44L271.94 286.723L107.449 623.22L106.551 622.78L270.936 286.5L-120 286.5V285.5L271.341 285.5L209.182 158.5L-120 158.5V157.5L208.693 157.5L165.622 69.5L-120 69.5V68.5L165.133 68.5L46.5509 -173.78L47.4491 -174.22L166.246 68.5L338.874 68.5L215.551 -183.78L216.449 -184.22L339.987 68.5H377.502L407.826 6.46602L315.551 -182.781L316.449 -183.219L408.383 5.32661L500.551 -183.22L501.449 -182.78L408.939 6.46658L439.088 68.2999L561.551 -182.22L562.449 -181.78L440.104 68.4999H489.004L599.551 -158.219L600.449 -157.781L490.116 68.4999H550.144L646.551 -129.219L647.449 -128.781L551.257 68.4999L770 68.4999V69.4999L550.769 69.4999L507.861 157.5L770 157.5V158.5L507.373 158.5L495.221 183.422L544.994 285.5L770 285.5V286.5L545.481 286.5L709.449 622.781L708.551 623.219L544.369 286.5H446.553L610.449 621.78L609.551 622.22ZM166.736 69.5L209.806 157.5L333.996 157.5L358.188 108.01L339.363 69.5L166.736 69.5ZM210.296 158.5L271.94 284.447L333.507 158.5L210.296 158.5ZM272.944 286.5L302.703 347.302L332.425 286.5H272.944ZM303.26 348.439L327.93 398.844L382.709 286.5H333.538L303.26 348.439ZM328.488 399.983L383.821 286.5L443.849 286.5L358.558 461.422L328.488 399.983ZM446.064 285.5L445.756 284.87L494.665 184.563L543.881 285.5H446.064ZM506.261 158.5L494.665 182.282L483.069 158.5H506.261ZM549.657 69.4999L506.748 157.5H482.582L464.651 120.726L489.629 69.4999H549.657ZM445.199 283.731L494.109 183.422L481.957 158.5H446.233L415.147 222.254L445.199 283.731ZM414.591 223.394L444.643 284.871L444.336 285.5L384.309 285.5L414.591 223.394ZM464.095 119.586L488.516 69.4999H439.674L464.095 119.586ZM463.539 120.727L445.608 157.5H396.598L439.087 70.5794L463.539 120.727ZM446.721 157.5L464.095 121.867L481.469 157.5H446.721ZM445.121 158.5H396.109L390.045 170.904L414.59 221.114L445.121 158.5ZM414.034 222.254L389.489 172.042L334.027 285.5H383.196L414.034 222.254ZM389.489 169.765L394.996 158.5H383.982L389.489 169.765ZM395.484 157.5L438.502 69.4999L378.126 69.5L359.301 108.01L383.493 157.5H395.484ZM332.914 285.5L388.932 170.904L382.869 158.5H334.62L272.538 285.5H332.914ZM408.382 7.606L378.615 68.5L438.073 68.4999L408.382 7.606ZM377.013 69.5H340.476L358.744 106.872L377.013 69.5ZM358.744 109.149L335.109 157.5H382.38L358.744 109.149Z" fill="url(#paint2_linear_100_765)" fill-opacity="0.65"/>
<path d="M249 -174L642 631" stroke="url(#paint3_linear_100_765)" stroke-opacity="0.1"/>
<g clip-path="url(#clip2_100_765)">
<path d="M76.877 66.3147H76.894L71.9084 56.1152L68.835 49.8267H86.8863L102.728 82.2366H84.6828L76.877 66.3147Z" fill="white"/>
<path d="M68.1672 48.1716L68.129 48.3798L68.097 48.3147L68.1672 48.1716Z" fill="white"/>
<path d="M50.9772 46.946L60.6122 27.2366H75.8432L75.9368 27.4275L62.3585 55.1846L62.3861 55.1976L61.9373 56.1152L56.9518 66.3147H66.9229H69.7964L77.6001 82.2366H68.2288H33.7277L50.9772 46.946Z" fill="white"/>
</g>
<path d="M415.268 49.3187V52.3655L418.221 60.1234L421.174 52.3655V49.3187C421.174 48.9905 421.268 48.721 421.455 48.5101C421.643 48.2991 421.885 48.1937 422.182 48.1937C422.479 48.1937 422.721 48.2991 422.908 48.5101C423.096 48.7132 423.189 48.9827 423.189 49.3187V52.7523L419.229 62.8773C419.104 63.2132 418.963 63.4398 418.807 63.5569C418.658 63.6819 418.463 63.7444 418.221 63.7444C417.971 63.7444 417.764 63.678 417.6 63.5452C417.436 63.4124 417.299 63.1898 417.189 62.8773L413.252 52.7523V49.3187C413.252 48.9749 413.342 48.7015 413.521 48.4984C413.709 48.2952 413.955 48.1937 414.26 48.1937C414.549 48.1937 414.787 48.2991 414.975 48.5101C415.17 48.721 415.268 48.9905 415.268 49.3187ZM436.9 48.1937C437.236 48.1937 437.506 48.2874 437.709 48.4749C437.92 48.6624 438.025 48.9046 438.025 49.2015C438.025 49.4905 437.92 49.7327 437.709 49.928C437.498 50.1155 437.229 50.2093 436.9 50.2093H434.064V61.7288H436.9C437.236 61.7288 437.506 61.8226 437.709 62.0101C437.92 62.1976 438.025 62.4398 438.025 62.7366C438.025 63.0335 437.92 63.2757 437.709 63.4632C437.498 63.6507 437.229 63.7444 436.9 63.7444H429.213C428.877 63.7444 428.604 63.6507 428.393 63.4632C428.189 63.2757 428.088 63.0335 428.088 62.7366C428.088 62.4398 428.193 62.1976 428.404 62.0101C428.615 61.8226 428.885 61.7288 429.213 61.7288H432.049V50.2093H429.213C428.877 50.2093 428.604 50.1155 428.393 49.928C428.189 49.7405 428.088 49.4984 428.088 49.2015C428.088 48.9046 428.193 48.6624 428.404 48.4749C428.615 48.2874 428.885 48.1937 429.213 48.1937H436.9ZM444.939 50.2093V53.2796H449.814C450.088 53.2796 450.322 53.1741 450.518 52.9632C450.721 52.7523 450.822 52.514 450.822 52.2484V51.2171C450.822 50.9515 450.721 50.7171 450.518 50.514C450.314 50.3109 450.08 50.2093 449.814 50.2093H444.939ZM442.924 48.1937H449.814C450.643 48.1937 451.357 48.4905 451.959 49.0843C452.561 49.678 452.861 50.389 452.861 51.2171V52.2484C452.861 53.0843 452.564 53.803 451.971 54.4046C451.377 54.9984 450.658 55.2952 449.814 55.2952H448.736L452.662 62.139C452.732 62.2562 452.783 62.3616 452.814 62.4554C452.846 62.5491 452.861 62.6351 452.861 62.7132C452.861 62.9944 452.764 63.2327 452.568 63.428C452.373 63.6234 452.135 63.721 451.854 63.721C451.658 63.721 451.479 63.6702 451.314 63.5687C451.15 63.4671 451.018 63.3265 450.916 63.1468L446.381 55.2952H444.939V62.6194C444.939 62.9554 444.846 63.2249 444.658 63.428C444.471 63.639 444.229 63.7444 443.932 63.7444C443.635 63.7444 443.393 63.639 443.205 63.428C443.018 63.2171 442.924 62.9476 442.924 62.6194V48.1937ZM457.76 48.1937H467.697V50.7835C467.697 51.1194 467.604 51.3929 467.416 51.6038C467.229 51.8069 466.986 51.9085 466.689 51.9085C466.393 51.9085 466.15 51.803 465.963 51.5921C465.775 51.3812 465.682 51.1116 465.682 50.7835V50.2093H463.736V62.6194C463.736 62.9554 463.643 63.2249 463.455 63.428C463.268 63.639 463.025 63.7444 462.729 63.7444C462.432 63.7444 462.189 63.639 462.002 63.428C461.814 63.2171 461.721 62.9476 461.721 62.6194V50.2093H459.775V50.7835C459.775 51.1194 459.682 51.3929 459.494 51.6038C459.307 51.8069 459.064 51.9085 458.768 51.9085C458.471 51.9085 458.229 51.803 458.041 51.5921C457.854 51.3812 457.76 51.1116 457.76 50.7835V48.1937ZM474.611 49.3187V60.721C474.611 61.0023 474.709 61.2405 474.904 61.4359C475.107 61.6312 475.346 61.7288 475.619 61.7288H479.486C479.752 61.7288 479.99 61.6273 480.201 61.4241C480.412 61.221 480.518 60.9866 480.518 60.721V49.3187C480.518 48.9749 480.607 48.7015 480.787 48.4984C480.975 48.2952 481.221 48.1937 481.525 48.1937C481.814 48.1937 482.053 48.2991 482.24 48.5101C482.436 48.721 482.533 48.9905 482.533 49.3187V60.721C482.533 61.5491 482.236 62.2601 481.643 62.8538C481.049 63.4476 480.338 63.7444 479.51 63.7444H475.643C474.799 63.7444 474.08 63.4476 473.486 62.8538C472.893 62.2679 472.596 61.5569 472.596 60.721V49.3187C472.596 48.9749 472.686 48.7015 472.865 48.4984C473.053 48.2952 473.299 48.1937 473.604 48.1937C473.893 48.1937 474.131 48.2991 474.318 48.5101C474.514 48.721 474.611 48.9905 474.611 49.3187ZM492.4 52.7991L490.771 58.3421H494.006L492.4 52.7991ZM493.479 49.3187L497.275 62.3616C497.299 62.4319 497.314 62.5023 497.322 62.5726C497.338 62.6429 497.346 62.7054 497.346 62.7601C497.346 63.0335 497.248 63.264 497.053 63.4515C496.857 63.6468 496.627 63.7444 496.361 63.7444C496.127 63.7444 495.916 63.6663 495.729 63.5101C495.549 63.3616 495.424 63.1624 495.354 62.9124L494.604 60.3577H490.209L489.447 62.9007C489.354 63.1898 489.221 63.4007 489.049 63.5335C488.885 63.6741 488.674 63.7444 488.416 63.7444C488.158 63.7444 487.932 63.6468 487.736 63.4515C487.549 63.264 487.455 63.0413 487.455 62.7835C487.455 62.6663 487.459 62.5804 487.467 62.5257C487.475 62.4632 487.486 62.4046 487.502 62.3499L491.299 49.3187C491.416 48.8968 491.557 48.6038 491.721 48.4398C491.893 48.2757 492.119 48.1937 492.4 48.1937C492.674 48.1937 492.893 48.2718 493.057 48.428C493.221 48.5843 493.361 48.8812 493.479 49.3187ZM504.283 49.3187V61.7288H511.08C511.416 61.7288 511.686 61.8226 511.889 62.0101C512.1 62.1976 512.205 62.4398 512.205 62.7366C512.205 63.0335 512.1 63.2757 511.889 63.4632C511.678 63.6507 511.408 63.7444 511.08 63.7444H502.268V49.3187C502.268 48.9749 502.357 48.7015 502.537 48.4984C502.725 48.2952 502.971 48.1937 503.275 48.1937C503.564 48.1937 503.803 48.2991 503.99 48.5101C504.186 48.721 504.283 48.9905 504.283 49.3187ZM529.783 63.7444C529.158 63.7444 528.615 63.5921 528.154 63.2874C527.701 62.9827 527.311 62.5023 526.982 61.846L524.896 57.6976C524.771 57.4554 524.678 57.1937 524.615 56.9124C524.561 56.6312 524.533 56.3265 524.533 55.9984C524.533 55.6546 524.561 55.3343 524.615 55.0374C524.678 54.7405 524.771 54.4749 524.896 54.2405L526.982 50.0921C527.295 49.4437 527.682 48.9671 528.143 48.6624C528.604 48.3499 529.15 48.1937 529.783 48.1937H533.346C533.682 48.1937 533.951 48.2874 534.154 48.4749C534.365 48.6624 534.471 48.9046 534.471 49.2015C534.471 49.4905 534.365 49.7327 534.154 49.928C533.943 50.1155 533.674 50.2093 533.346 50.2093H529.783C529.588 50.2093 529.404 50.264 529.232 50.3734C529.061 50.4827 528.924 50.6351 528.822 50.8304L526.76 55.014C526.697 55.1546 526.65 55.303 526.619 55.4593C526.588 55.6155 526.572 55.7835 526.572 55.9632C526.572 56.1507 526.588 56.3226 526.619 56.4788C526.65 56.6351 526.697 56.7835 526.76 56.9241L528.822 61.0843C528.924 61.2796 529.061 61.4359 529.232 61.553C529.404 61.6702 529.588 61.7288 529.783 61.7288H533.346C533.682 61.7288 533.951 61.8226 534.154 62.0101C534.365 62.1976 534.471 62.4398 534.471 62.7366C534.471 63.0335 534.365 63.2757 534.154 63.4632C533.943 63.6507 533.674 63.7444 533.346 63.7444H529.783ZM544.338 52.7991L542.709 58.3421H545.943L544.338 52.7991ZM545.416 49.3187L549.213 62.3616C549.236 62.4319 549.252 62.5023 549.26 62.5726C549.275 62.6429 549.283 62.7054 549.283 62.7601C549.283 63.0335 549.186 63.264 548.99 63.4515C548.795 63.6468 548.564 63.7444 548.299 63.7444C548.064 63.7444 547.854 63.6663 547.666 63.5101C547.486 63.3616 547.361 63.1624 547.291 62.9124L546.541 60.3577H542.146L541.385 62.9007C541.291 63.1898 541.158 63.4007 540.986 63.5335C540.822 63.6741 540.611 63.7444 540.354 63.7444C540.096 63.7444 539.869 63.6468 539.674 63.4515C539.486 63.264 539.393 63.0413 539.393 62.7835C539.393 62.6663 539.396 62.5804 539.404 62.5257C539.412 62.4632 539.424 62.4046 539.439 62.3499L543.236 49.3187C543.354 48.8968 543.494 48.6038 543.658 48.4398C543.83 48.2757 544.057 48.1937 544.338 48.1937C544.611 48.1937 544.83 48.2718 544.994 48.428C545.158 48.5843 545.299 48.8812 545.416 49.3187ZM556.221 50.2093V53.2796H561.096C561.369 53.2796 561.604 53.1741 561.799 52.9632C562.002 52.7523 562.104 52.514 562.104 52.2484V51.2171C562.104 50.9515 562.002 50.7171 561.799 50.514C561.596 50.3109 561.361 50.2093 561.096 50.2093H556.221ZM554.205 48.1937H561.096C561.924 48.1937 562.639 48.4905 563.24 49.0843C563.842 49.678 564.143 50.389 564.143 51.2171V52.2484C564.143 53.0843 563.846 53.803 563.252 54.4046C562.658 54.9984 561.939 55.2952 561.096 55.2952H560.018L563.943 62.139C564.014 62.2562 564.064 62.3616 564.096 62.4554C564.127 62.5491 564.143 62.6351 564.143 62.7132C564.143 62.9944 564.045 63.2327 563.85 63.428C563.654 63.6234 563.416 63.721 563.135 63.721C562.939 63.721 562.76 63.6702 562.596 63.5687C562.432 63.4671 562.299 63.3265 562.197 63.1468L557.662 55.2952H556.221V62.6194C556.221 62.9554 556.127 63.2249 555.939 63.428C555.752 63.639 555.51 63.7444 555.213 63.7444C554.916 63.7444 554.674 63.639 554.486 63.428C554.299 63.2171 554.205 62.9476 554.205 62.6194V48.1937ZM573.717 50.2093H573.049V61.7288H573.717C573.92 61.7288 574.107 61.6741 574.279 61.5648C574.451 61.4554 574.584 61.303 574.678 61.1077L576.74 56.9241C576.811 56.7835 576.861 56.6351 576.893 56.4788C576.924 56.3226 576.939 56.1507 576.939 55.9632C576.939 55.7835 576.924 55.6155 576.893 55.4593C576.861 55.303 576.811 55.1546 576.74 55.014L574.678 50.8538C574.576 50.6585 574.439 50.5023 574.268 50.3851C574.096 50.2679 573.912 50.2093 573.717 50.2093ZM573.717 48.1937C574.35 48.1937 574.893 48.346 575.346 48.6507C575.799 48.9554 576.193 49.4359 576.529 50.0921L578.615 54.2405C578.732 54.4827 578.822 54.7484 578.885 55.0374C578.947 55.3187 578.979 55.6273 578.979 55.9632C578.979 56.2991 578.947 56.6116 578.885 56.9007C578.822 57.1898 578.732 57.4554 578.615 57.6976L576.529 61.846C576.209 62.4944 575.818 62.971 575.357 63.2757C574.904 63.5882 574.357 63.7444 573.717 63.7444H570.166C569.83 63.7444 569.557 63.6507 569.346 63.4632C569.143 63.2757 569.041 63.0335 569.041 62.7366C569.041 62.4398 569.146 62.1976 569.357 62.0101C569.568 61.8226 569.838 61.7288 570.166 61.7288H571.033V50.2093H570.166C569.83 50.2093 569.557 50.1155 569.346 49.928C569.143 49.7405 569.041 49.4984 569.041 49.2015C569.041 48.9046 569.146 48.6624 569.357 48.4749C569.568 48.2874 569.838 48.1937 570.166 48.1937H573.717Z" fill="white"/>
<path d="M41.0554 222.724L46.3097 231.766L51.5641 222.724C51.7678 222.385 52.0054 222.133 52.2769 221.97C52.5485 221.808 52.8539 221.726 53.1934 221.726C53.6686 221.726 54.0759 221.896 54.4153 222.235C54.7683 222.561 54.9448 222.975 54.9448 223.478C54.9448 223.627 54.9109 223.79 54.843 223.966C54.7887 224.143 54.7072 224.313 54.5986 224.475L48.3056 235.229L54.5986 245.982C54.7344 246.226 54.8226 246.423 54.8634 246.572C54.9177 246.722 54.9448 246.864 54.9448 247C54.9448 247.489 54.7683 247.91 54.4153 248.263C54.0623 248.616 53.655 248.792 53.1934 248.792C52.8947 248.792 52.6028 248.697 52.3176 248.507C52.0461 248.331 51.8085 248.079 51.6048 247.754L46.269 238.731L40.9739 247.754C40.7431 248.107 40.4987 248.365 40.2407 248.527C39.9828 248.704 39.6977 248.792 39.3854 248.792C38.9102 248.792 38.5029 248.622 38.1634 248.283C37.8376 247.944 37.6747 247.516 37.6747 247C37.6747 246.837 37.695 246.667 37.7358 246.491C37.7901 246.314 37.8647 246.151 37.9598 246.002L44.2121 235.33L38.0209 224.496C37.8851 224.279 37.7901 224.095 37.7358 223.946C37.695 223.797 37.6747 223.64 37.6747 223.478C37.6747 222.975 37.8444 222.561 38.1838 222.235C38.5232 221.896 38.9373 221.726 39.4261 221.726C39.7384 221.726 40.0439 221.814 40.3426 221.991C40.6413 222.167 40.8789 222.412 41.0554 222.724ZM66.8384 222.724L72.0928 231.766L77.3472 222.724C77.5508 222.385 77.7884 222.133 78.06 221.97C78.3315 221.808 78.637 221.726 78.9764 221.726C79.4516 221.726 79.859 221.896 80.1984 222.235C80.5514 222.561 80.7279 222.975 80.7279 223.478C80.7279 223.627 80.6939 223.79 80.6261 223.966C80.5718 224.143 80.4903 224.313 80.3817 224.475L74.0887 235.229L80.3817 245.982C80.5174 246.226 80.6057 246.423 80.6464 246.572C80.7007 246.722 80.7279 246.864 80.7279 247C80.7279 247.489 80.5514 247.91 80.1984 248.263C79.8454 248.616 79.4381 248.792 78.9764 248.792C78.6777 248.792 78.3858 248.697 78.1007 248.507C77.8292 248.331 77.5916 248.079 77.3879 247.754L72.0521 238.731L66.757 247.754C66.5262 248.107 66.2818 248.365 66.0238 248.527C65.7658 248.704 65.4807 248.792 65.1684 248.792C64.6932 248.792 64.2859 248.622 63.9465 248.283C63.6206 247.944 63.4577 247.516 63.4577 247C63.4577 246.837 63.4781 246.667 63.5188 246.491C63.5731 246.314 63.6478 246.151 63.7428 246.002L69.9951 235.33L63.8039 224.496C63.6682 224.279 63.5731 224.095 63.5188 223.946C63.4781 223.797 63.4577 223.64 63.4577 223.478C63.4577 222.975 63.6274 222.561 63.9669 222.235C64.3063 221.896 64.7204 221.726 65.2092 221.726C65.5215 221.726 65.8269 221.814 66.1256 221.991C66.4243 222.167 66.6619 222.412 66.8384 222.724ZM92.6215 222.724L97.8759 231.766L103.13 222.724C103.334 222.385 103.571 222.133 103.843 221.97C104.115 221.808 104.42 221.726 104.759 221.726C105.235 221.726 105.642 221.896 105.981 222.235C106.334 222.561 106.511 222.975 106.511 223.478C106.511 223.627 106.477 223.79 106.409 223.966C106.355 224.143 106.273 224.313 106.165 224.475L99.8717 235.229L106.165 245.982C106.301 246.226 106.389 246.423 106.429 246.572C106.484 246.722 106.511 246.864 106.511 247C106.511 247.489 106.334 247.91 105.981 248.263C105.628 248.616 105.221 248.792 104.759 248.792C104.461 248.792 104.169 248.697 103.884 248.507C103.612 248.331 103.375 248.079 103.171 247.754L97.8351 238.731L92.54 247.754C92.3092 248.107 92.0648 248.365 91.8069 248.527C91.5489 248.704 91.2638 248.792 90.9515 248.792C90.4763 248.792 90.069 248.622 89.7296 248.283C89.4037 247.944 89.2408 247.516 89.2408 247C89.2408 246.837 89.2611 246.667 89.3019 246.491C89.3562 246.314 89.4309 246.151 89.5259 246.002L95.7782 235.33L89.587 224.496C89.4512 224.279 89.3562 224.095 89.3019 223.946C89.2611 223.797 89.2408 223.64 89.2408 223.478C89.2408 222.975 89.4105 222.561 89.7499 222.235C90.0894 221.896 90.5035 221.726 90.9922 221.726C91.3045 221.726 91.61 221.814 91.9087 221.991C92.2074 222.167 92.445 222.412 92.6215 222.724ZM118.405 222.724L123.659 231.766L128.913 222.724C129.117 222.385 129.355 222.133 129.626 221.97C129.898 221.808 130.203 221.726 130.543 221.726C131.018 221.726 131.425 221.896 131.765 222.235C132.118 222.561 132.294 222.975 132.294 223.478C132.294 223.627 132.26 223.79 132.192 223.966C132.138 224.143 132.056 224.313 131.948 224.475L125.655 235.229L131.948 245.982C132.084 246.226 132.172 246.423 132.213 246.572C132.267 246.722 132.294 246.864 132.294 247C132.294 247.489 132.118 247.91 131.765 248.263C131.411 248.616 131.004 248.792 130.543 248.792C130.244 248.792 129.952 248.697 129.667 248.507C129.395 248.331 129.158 248.079 128.954 247.754L123.618 238.731L118.323 247.754C118.092 248.107 117.848 248.365 117.59 248.527C117.332 248.704 117.047 248.792 116.735 248.792C116.259 248.792 115.852 248.622 115.513 248.283C115.187 247.944 115.024 247.516 115.024 247C115.024 246.837 115.044 246.667 115.085 246.491C115.139 246.314 115.214 246.151 115.309 246.002L121.561 235.33L115.37 224.496C115.234 224.279 115.139 224.095 115.085 223.946C115.044 223.797 115.024 223.64 115.024 223.478C115.024 222.975 115.194 222.561 115.533 222.235C115.872 221.896 116.287 221.726 116.775 221.726C117.088 221.726 117.393 221.814 117.692 221.991C117.99 222.167 118.228 222.412 118.405 222.724Z" fill="white"/>
<path d="M172.11 222.724L177.364 231.766L182.619 222.724C182.822 222.385 183.06 222.133 183.331 221.97C183.603 221.808 183.908 221.726 184.248 221.726C184.723 221.726 185.13 221.896 185.47 222.235C185.823 222.561 185.999 222.975 185.999 223.478C185.999 223.627 185.965 223.79 185.897 223.966C185.843 224.143 185.762 224.313 185.653 224.475L179.36 235.229L185.653 245.982C185.789 246.226 185.877 246.423 185.918 246.572C185.972 246.722 185.999 246.864 185.999 247C185.999 247.489 185.823 247.91 185.47 248.263C185.117 248.616 184.709 248.792 184.248 248.792C183.949 248.792 183.657 248.697 183.372 248.507C183.101 248.331 182.863 248.079 182.659 247.754L177.323 238.731L172.028 247.754C171.798 248.107 171.553 248.365 171.295 248.527C171.037 248.704 170.752 248.792 170.44 248.792C169.965 248.792 169.557 248.622 169.218 248.283C168.892 247.944 168.729 247.516 168.729 247C168.729 246.837 168.749 246.667 168.79 246.491C168.845 246.314 168.919 246.151 169.014 246.002L175.267 235.33L169.075 224.496C168.94 224.279 168.845 224.095 168.79 223.946C168.749 223.797 168.729 223.64 168.729 223.478C168.729 222.975 168.899 222.561 169.238 222.235C169.578 221.896 169.992 221.726 170.481 221.726C170.793 221.726 171.098 221.814 171.397 221.991C171.696 222.167 171.933 222.412 172.11 222.724ZM197.893 222.724L203.147 231.766L208.402 222.724C208.605 222.385 208.843 222.133 209.114 221.97C209.386 221.808 209.691 221.726 210.031 221.726C210.506 221.726 210.913 221.896 211.253 222.235C211.606 222.561 211.782 222.975 211.782 223.478C211.782 223.627 211.748 223.79 211.681 223.966C211.626 224.143 211.545 224.313 211.436 224.475L205.143 235.229L211.436 245.982C211.572 246.226 211.66 246.423 211.701 246.572C211.755 246.722 211.782 246.864 211.782 247C211.782 247.489 211.606 247.91 211.253 248.263C210.9 248.616 210.493 248.792 210.031 248.792C209.732 248.792 209.44 248.697 209.155 248.507C208.884 248.331 208.646 248.079 208.442 247.754L203.107 238.731L197.811 247.754C197.581 248.107 197.336 248.365 197.078 248.527C196.82 248.704 196.535 248.792 196.223 248.792C195.748 248.792 195.34 248.622 195.001 248.283C194.675 247.944 194.512 247.516 194.512 247C194.512 246.837 194.533 246.667 194.573 246.491C194.628 246.314 194.702 246.151 194.797 246.002L201.05 235.33L194.858 224.496C194.723 224.279 194.628 224.095 194.573 223.946C194.533 223.797 194.512 223.64 194.512 223.478C194.512 222.975 194.682 222.561 195.021 222.235C195.361 221.896 195.775 221.726 196.264 221.726C196.576 221.726 196.881 221.814 197.18 221.991C197.479 222.167 197.716 222.412 197.893 222.724ZM223.676 222.724L228.93 231.766L234.185 222.724C234.388 222.385 234.626 222.133 234.897 221.97C235.169 221.808 235.475 221.726 235.814 221.726C236.289 221.726 236.696 221.896 237.036 222.235C237.389 222.561 237.565 222.975 237.565 223.478C237.565 223.627 237.531 223.79 237.464 223.966C237.409 224.143 237.328 224.313 237.219 224.475L230.926 235.229L237.219 245.982C237.355 246.226 237.443 246.423 237.484 246.572C237.538 246.722 237.565 246.864 237.565 247C237.565 247.489 237.389 247.91 237.036 248.263C236.683 248.616 236.276 248.792 235.814 248.792C235.515 248.792 235.223 248.697 234.938 248.507C234.667 248.331 234.429 248.079 234.225 247.754L228.89 238.731L223.594 247.754C223.364 248.107 223.119 248.365 222.861 248.527C222.603 248.704 222.318 248.792 222.006 248.792C221.531 248.792 221.123 248.622 220.784 248.283C220.458 247.944 220.295 247.516 220.295 247C220.295 246.837 220.316 246.667 220.356 246.491C220.411 246.314 220.485 246.151 220.58 246.002L226.833 235.33L220.641 224.496C220.506 224.279 220.411 224.095 220.356 223.946C220.316 223.797 220.295 223.64 220.295 223.478C220.295 222.975 220.465 222.561 220.804 222.235C221.144 221.896 221.558 221.726 222.047 221.726C222.359 221.726 222.664 221.814 222.963 221.991C223.262 222.167 223.499 222.412 223.676 222.724ZM249.459 222.724L254.713 231.766L259.968 222.724C260.171 222.385 260.409 222.133 260.681 221.97C260.952 221.808 261.258 221.726 261.597 221.726C262.072 221.726 262.48 221.896 262.819 222.235C263.172 222.561 263.348 222.975 263.348 223.478C263.348 223.627 263.315 223.79 263.247 223.966C263.192 224.143 263.111 224.313 263.002 224.475L256.709 235.229L263.002 245.982C263.138 246.226 263.226 246.423 263.267 246.572C263.321 246.722 263.348 246.864 263.348 247C263.348 247.489 263.172 247.91 262.819 248.263C262.466 248.616 262.059 248.792 261.597 248.792C261.298 248.792 261.006 248.697 260.721 248.507C260.45 248.331 260.212 248.079 260.008 247.754L254.673 238.731L249.378 247.754C249.147 248.107 248.902 248.365 248.644 248.527C248.386 248.704 248.101 248.792 247.789 248.792C247.314 248.792 246.906 248.622 246.567 248.283C246.241 247.944 246.078 247.516 246.078 247C246.078 246.837 246.099 246.667 246.139 246.491C246.194 246.314 246.268 246.151 246.363 246.002L252.616 235.33L246.425 224.496C246.289 224.279 246.194 224.095 246.139 223.946C246.099 223.797 246.078 223.64 246.078 223.478C246.078 222.975 246.248 222.561 246.587 222.235C246.927 221.896 247.341 221.726 247.83 221.726C248.142 221.726 248.448 221.814 248.746 221.991C249.045 222.167 249.282 222.412 249.459 222.724Z" fill="white"/>
<path d="M303.165 222.724L308.419 231.766L313.673 222.724C313.877 222.385 314.115 222.133 314.386 221.97C314.658 221.808 314.963 221.726 315.303 221.726C315.778 221.726 316.185 221.896 316.524 222.235C316.877 222.561 317.054 222.975 317.054 223.478C317.054 223.627 317.02 223.79 316.952 223.966C316.898 224.143 316.816 224.313 316.708 224.475L310.415 235.229L316.708 245.982C316.844 246.226 316.932 246.423 316.972 246.572C317.027 246.722 317.054 246.864 317.054 247C317.054 247.489 316.877 247.91 316.524 248.263C316.171 248.616 315.764 248.792 315.303 248.792C315.004 248.792 314.712 248.697 314.427 248.507C314.155 248.331 313.918 248.079 313.714 247.754L308.378 238.731L303.083 247.754C302.852 248.107 302.608 248.365 302.35 248.527C302.092 248.704 301.807 248.792 301.495 248.792C301.019 248.792 300.612 248.622 300.273 248.283C299.947 247.944 299.784 247.516 299.784 247C299.784 246.837 299.804 246.667 299.845 246.491C299.899 246.314 299.974 246.151 300.069 246.002L306.321 235.33L300.13 224.496C299.994 224.279 299.899 224.095 299.845 223.946C299.804 223.797 299.784 223.64 299.784 223.478C299.784 222.975 299.954 222.561 300.293 222.235C300.632 221.896 301.046 221.726 301.535 221.726C301.848 221.726 302.153 221.814 302.452 221.991C302.75 222.167 302.988 222.412 303.165 222.724ZM328.948 222.724L334.202 231.766L339.456 222.724C339.66 222.385 339.898 222.133 340.169 221.97C340.441 221.808 340.746 221.726 341.086 221.726C341.561 221.726 341.968 221.896 342.308 222.235C342.661 222.561 342.837 222.975 342.837 223.478C342.837 223.627 342.803 223.79 342.735 223.966C342.681 224.143 342.599 224.313 342.491 224.475L336.198 235.229L342.491 245.982C342.627 246.226 342.715 246.423 342.756 246.572C342.81 246.722 342.837 246.864 342.837 247C342.837 247.489 342.661 247.91 342.308 248.263C341.955 248.616 341.547 248.792 341.086 248.792C340.787 248.792 340.495 248.697 340.21 248.507C339.938 248.331 339.701 248.079 339.497 247.754L334.161 238.731L328.866 247.754C328.635 248.107 328.391 248.365 328.133 248.527C327.875 248.704 327.59 248.792 327.278 248.792C326.802 248.792 326.395 248.622 326.056 248.283C325.73 247.944 325.567 247.516 325.567 247C325.567 246.837 325.587 246.667 325.628 246.491C325.682 246.314 325.757 246.151 325.852 246.002L332.104 235.33L325.913 224.496C325.777 224.279 325.682 224.095 325.628 223.946C325.587 223.797 325.567 223.64 325.567 223.478C325.567 222.975 325.737 222.561 326.076 222.235C326.415 221.896 326.83 221.726 327.318 221.726C327.631 221.726 327.936 221.814 328.235 221.991C328.533 222.167 328.771 222.412 328.948 222.724ZM354.731 222.724L359.985 231.766L365.239 222.724C365.443 222.385 365.681 222.133 365.952 221.97C366.224 221.808 366.529 221.726 366.869 221.726C367.344 221.726 367.751 221.896 368.091 222.235C368.444 222.561 368.62 222.975 368.62 223.478C368.62 223.627 368.586 223.79 368.518 223.966C368.464 224.143 368.382 224.313 368.274 224.475L361.981 235.229L368.274 245.982C368.41 246.226 368.498 246.423 368.539 246.572C368.593 246.722 368.62 246.864 368.62 247C368.62 247.489 368.444 247.91 368.091 248.263C367.738 248.616 367.33 248.792 366.869 248.792C366.57 248.792 366.278 248.697 365.993 248.507C365.721 248.331 365.484 248.079 365.28 247.754L359.944 238.731L354.649 247.754C354.418 248.107 354.174 248.365 353.916 248.527C353.658 248.704 353.373 248.792 353.061 248.792C352.585 248.792 352.178 248.622 351.839 248.283C351.513 247.944 351.35 247.516 351.35 247C351.35 246.837 351.37 246.667 351.411 246.491C351.465 246.314 351.54 246.151 351.635 246.002L357.887 235.33L351.696 224.496C351.56 224.279 351.465 224.095 351.411 223.946C351.37 223.797 351.35 223.64 351.35 223.478C351.35 222.975 351.52 222.561 351.859 222.235C352.198 221.896 352.613 221.726 353.101 221.726C353.414 221.726 353.719 221.814 354.018 221.991C354.317 222.167 354.554 222.412 354.731 222.724ZM380.514 222.724L385.768 231.766L391.022 222.724C391.226 222.385 391.464 222.133 391.735 221.97C392.007 221.808 392.312 221.726 392.652 221.726C393.127 221.726 393.534 221.896 393.874 222.235C394.227 222.561 394.403 222.975 394.403 223.478C394.403 223.627 394.369 223.79 394.301 223.966C394.247 224.143 394.166 224.313 394.057 224.475L387.764 235.229L394.057 245.982C394.193 246.226 394.281 246.423 394.322 246.572C394.376 246.722 394.403 246.864 394.403 247C394.403 247.489 394.227 247.91 393.874 248.263C393.521 248.616 393.113 248.792 392.652 248.792C392.353 248.792 392.061 248.697 391.776 248.507C391.504 248.331 391.267 248.079 391.063 247.754L385.727 238.731L380.432 247.754C380.201 248.107 379.957 248.365 379.699 248.527C379.441 248.704 379.156 248.792 378.844 248.792C378.368 248.792 377.961 248.622 377.622 248.283C377.296 247.944 377.133 247.516 377.133 247C377.133 246.837 377.153 246.667 377.194 246.491C377.248 246.314 377.323 246.151 377.418 246.002L383.67 235.33L377.479 224.496C377.343 224.279 377.248 224.095 377.194 223.946C377.153 223.797 377.133 223.64 377.133 223.478C377.133 222.975 377.303 222.561 377.642 222.235C377.982 221.896 378.396 221.726 378.884 221.726C379.197 221.726 379.502 221.814 379.801 221.991C380.1 222.167 380.337 222.412 380.514 222.724Z" fill="white"/>
<path d="M434.219 222.724L439.473 231.766L444.728 222.724C444.931 222.385 445.169 222.133 445.44 221.97C445.712 221.808 446.018 221.726 446.357 221.726C446.832 221.726 447.239 221.896 447.579 222.235C447.932 222.561 448.108 222.975 448.108 223.478C448.108 223.627 448.074 223.79 448.007 223.966C447.952 224.143 447.871 224.313 447.762 224.475L441.469 235.229L447.762 245.982C447.898 246.226 447.986 246.423 448.027 246.572C448.081 246.722 448.108 246.864 448.108 247C448.108 247.489 447.932 247.91 447.579 248.263C447.226 248.616 446.819 248.792 446.357 248.792C446.058 248.792 445.766 248.697 445.481 248.507C445.21 248.331 444.972 248.079 444.768 247.754L439.433 238.731L434.137 247.754C433.907 248.107 433.662 248.365 433.404 248.527C433.146 248.704 432.861 248.792 432.549 248.792C432.074 248.792 431.666 248.622 431.327 248.283C431.001 247.944 430.838 247.516 430.838 247C430.838 246.837 430.859 246.667 430.899 246.491C430.954 246.314 431.028 246.151 431.123 246.002L437.376 235.33L431.184 224.496C431.049 224.279 430.954 224.095 430.899 223.946C430.859 223.797 430.838 223.64 430.838 223.478C430.838 222.975 431.008 222.561 431.347 222.235C431.687 221.896 432.101 221.726 432.59 221.726C432.902 221.726 433.207 221.814 433.506 221.991C433.805 222.167 434.042 222.412 434.219 222.724ZM460.002 222.724L465.256 231.766L470.511 222.724C470.714 222.385 470.952 222.133 471.224 221.97C471.495 221.808 471.801 221.726 472.14 221.726C472.615 221.726 473.023 221.896 473.362 222.235C473.715 222.561 473.891 222.975 473.891 223.478C473.891 223.627 473.858 223.79 473.79 223.966C473.735 224.143 473.654 224.313 473.545 224.475L467.252 235.229L473.545 245.982C473.681 246.226 473.769 246.423 473.81 246.572C473.864 246.722 473.891 246.864 473.891 247C473.891 247.489 473.715 247.91 473.362 248.263C473.009 248.616 472.602 248.792 472.14 248.792C471.841 248.792 471.549 248.697 471.264 248.507C470.993 248.331 470.755 248.079 470.551 247.754L465.216 238.731L459.921 247.754C459.69 248.107 459.445 248.365 459.187 248.527C458.929 248.704 458.644 248.792 458.332 248.792C457.857 248.792 457.45 248.622 457.11 248.283C456.784 247.944 456.621 247.516 456.621 247C456.621 246.837 456.642 246.667 456.682 246.491C456.737 246.314 456.811 246.151 456.906 246.002L463.159 235.33L456.968 224.496C456.832 224.279 456.737 224.095 456.682 223.946C456.642 223.797 456.621 223.64 456.621 223.478C456.621 222.975 456.791 222.561 457.13 222.235C457.47 221.896 457.884 221.726 458.373 221.726C458.685 221.726 458.991 221.814 459.289 221.991C459.588 222.167 459.826 222.412 460.002 222.724ZM485.785 222.724L491.039 231.766L496.294 222.724C496.497 222.385 496.735 222.133 497.007 221.97C497.278 221.808 497.584 221.726 497.923 221.726C498.398 221.726 498.806 221.896 499.145 222.235C499.498 222.561 499.675 222.975 499.675 223.478C499.675 223.627 499.641 223.79 499.573 223.966C499.518 224.143 499.437 224.313 499.328 224.475L493.035 235.229L499.328 245.982C499.464 246.226 499.552 246.423 499.593 246.572C499.647 246.722 499.675 246.864 499.675 247C499.675 247.489 499.498 247.91 499.145 248.263C498.792 248.616 498.385 248.792 497.923 248.792C497.624 248.792 497.332 248.697 497.047 248.507C496.776 248.331 496.538 248.079 496.335 247.754L490.999 238.731L485.704 247.754C485.473 248.107 485.228 248.365 484.97 248.527C484.712 248.704 484.427 248.792 484.115 248.792C483.64 248.792 483.233 248.622 482.893 248.283C482.567 247.944 482.404 247.516 482.404 247C482.404 246.837 482.425 246.667 482.465 246.491C482.52 246.314 482.594 246.151 482.689 246.002L488.942 235.33L482.751 224.496C482.615 224.279 482.52 224.095 482.465 223.946C482.425 223.797 482.404 223.64 482.404 223.478C482.404 222.975 482.574 222.561 482.914 222.235C483.253 221.896 483.667 221.726 484.156 221.726C484.468 221.726 484.774 221.814 485.072 221.991C485.371 222.167 485.609 222.412 485.785 222.724ZM511.568 222.724L516.822 231.766L522.077 222.724C522.281 222.385 522.518 222.133 522.79 221.97C523.061 221.808 523.367 221.726 523.706 221.726C524.181 221.726 524.589 221.896 524.928 222.235C525.281 222.561 525.458 222.975 525.458 223.478C525.458 223.627 525.424 223.79 525.356 223.966C525.301 224.143 525.22 224.313 525.111 224.475L518.818 235.229L525.111 245.982C525.247 246.226 525.335 246.423 525.376 246.572C525.43 246.722 525.458 246.864 525.458 247C525.458 247.489 525.281 247.91 524.928 248.263C524.575 248.616 524.168 248.792 523.706 248.792C523.407 248.792 523.116 248.697 522.83 248.507C522.559 248.331 522.321 248.079 522.118 247.754L516.782 238.731L511.487 247.754C511.256 248.107 511.011 248.365 510.754 248.527C510.496 248.704 510.21 248.792 509.898 248.792C509.423 248.792 509.016 248.622 508.676 248.283C508.35 247.944 508.187 247.516 508.187 247C508.187 246.837 508.208 246.667 508.249 246.491C508.303 246.314 508.377 246.151 508.473 246.002L514.725 235.33L508.534 224.496C508.398 224.279 508.303 224.095 508.249 223.946C508.208 223.797 508.187 223.64 508.187 223.478C508.187 222.975 508.357 222.561 508.697 222.235C509.036 221.896 509.45 221.726 509.939 221.726C510.251 221.726 510.557 221.814 510.855 221.991C511.154 222.167 511.392 222.412 511.568 222.724Z" fill="white"/>
<path d="M39.5869 273.053L43.6182 279.991L47.6494 273.053C47.8057 272.793 47.988 272.6 48.1963 272.475C48.4046 272.35 48.639 272.287 48.8994 272.287C49.264 272.287 49.5765 272.418 49.8369 272.678C50.1077 272.928 50.2432 273.246 50.2432 273.631C50.2432 273.746 50.2171 273.871 50.165 274.006C50.1234 274.142 50.0609 274.272 49.9775 274.397L45.1494 282.647L49.9775 290.897C50.0817 291.084 50.1494 291.235 50.1807 291.35C50.2223 291.465 50.2432 291.574 50.2432 291.678C50.2432 292.053 50.1077 292.376 49.8369 292.647C49.5661 292.918 49.2536 293.053 48.8994 293.053C48.6702 293.053 48.4463 292.98 48.2275 292.834C48.0192 292.699 47.8369 292.506 47.6807 292.256L43.5869 285.334L39.5244 292.256C39.3473 292.527 39.1598 292.725 38.9619 292.85C38.764 292.985 38.5452 293.053 38.3057 293.053C37.9411 293.053 37.6286 292.923 37.3682 292.662C37.1182 292.402 36.9932 292.074 36.9932 291.678C36.9932 291.553 37.0088 291.423 37.04 291.287C37.0817 291.152 37.139 291.027 37.2119 290.912L42.0088 282.725L37.2588 274.412C37.1546 274.246 37.0817 274.105 37.04 273.991C37.0088 273.876 36.9932 273.756 36.9932 273.631C36.9932 273.246 37.1234 272.928 37.3838 272.678C37.6442 272.418 37.9619 272.287 38.3369 272.287C38.5765 272.287 38.8109 272.355 39.04 272.491C39.2692 272.626 39.4515 272.814 39.5869 273.053ZM59.3682 273.053L63.3994 279.991L67.4307 273.053C67.5869 272.793 67.7692 272.6 67.9775 272.475C68.1859 272.35 68.4202 272.287 68.6807 272.287C69.0452 272.287 69.3577 272.418 69.6182 272.678C69.889 272.928 70.0244 273.246 70.0244 273.631C70.0244 273.746 69.9984 273.871 69.9463 274.006C69.9046 274.142 69.8421 274.272 69.7588 274.397L64.9307 282.647L69.7588 290.897C69.863 291.084 69.9307 291.235 69.9619 291.35C70.0036 291.465 70.0244 291.574 70.0244 291.678C70.0244 292.053 69.889 292.376 69.6182 292.647C69.3473 292.918 69.0348 293.053 68.6807 293.053C68.4515 293.053 68.2275 292.98 68.0088 292.834C67.8005 292.699 67.6182 292.506 67.4619 292.256L63.3682 285.334L59.3057 292.256C59.1286 292.527 58.9411 292.725 58.7432 292.85C58.5452 292.985 58.3265 293.053 58.0869 293.053C57.7223 293.053 57.4098 292.923 57.1494 292.662C56.8994 292.402 56.7744 292.074 56.7744 291.678C56.7744 291.553 56.79 291.423 56.8213 291.287C56.863 291.152 56.9202 291.027 56.9932 290.912L61.79 282.725L57.04 274.412C56.9359 274.246 56.863 274.105 56.8213 273.991C56.79 273.876 56.7744 273.756 56.7744 273.631C56.7744 273.246 56.9046 272.928 57.165 272.678C57.4255 272.418 57.7432 272.287 58.1182 272.287C58.3577 272.287 58.5921 272.355 58.8213 272.491C59.0505 272.626 59.2327 272.814 59.3682 273.053ZM89.54 274.397L79.1494 292.225C78.9827 292.485 78.7952 292.678 78.5869 292.803C78.389 292.928 78.1598 292.991 77.8994 292.991C77.514 292.991 77.1911 292.866 76.9307 292.616C76.6807 292.376 76.5557 292.064 76.5557 291.678C76.5557 291.553 76.5765 291.423 76.6182 291.287C76.6598 291.142 76.7223 291.006 76.8057 290.881L87.2119 273.053C87.3682 272.793 87.5505 272.6 87.7588 272.475C87.9671 272.35 88.2015 272.287 88.4619 272.287C88.8265 272.287 89.139 272.418 89.3994 272.678C89.6702 272.928 89.8057 273.246 89.8057 273.631C89.8057 273.746 89.7796 273.871 89.7275 274.006C89.6859 274.142 89.6234 274.272 89.54 274.397ZM98.9307 273.053L102.962 279.991L106.993 273.053C107.149 272.793 107.332 272.6 107.54 272.475C107.748 272.35 107.983 272.287 108.243 272.287C108.608 272.287 108.92 272.418 109.181 272.678C109.451 272.928 109.587 273.246 109.587 273.631C109.587 273.746 109.561 273.871 109.509 274.006C109.467 274.142 109.405 274.272 109.321 274.397L104.493 282.647L109.321 290.897C109.425 291.084 109.493 291.235 109.524 291.35C109.566 291.465 109.587 291.574 109.587 291.678C109.587 292.053 109.451 292.376 109.181 292.647C108.91 292.918 108.597 293.053 108.243 293.053C108.014 293.053 107.79 292.98 107.571 292.834C107.363 292.699 107.181 292.506 107.024 292.256L102.931 285.334L98.8682 292.256C98.6911 292.527 98.5036 292.725 98.3057 292.85C98.1077 292.985 97.889 293.053 97.6494 293.053C97.2848 293.053 96.9723 292.923 96.7119 292.662C96.4619 292.402 96.3369 292.074 96.3369 291.678C96.3369 291.553 96.3525 291.423 96.3838 291.287C96.4255 291.152 96.4827 291.027 96.5557 290.912L101.353 282.725L96.6025 274.412C96.4984 274.246 96.4255 274.105 96.3838 273.991C96.3525 273.876 96.3369 273.756 96.3369 273.631C96.3369 273.246 96.4671 272.928 96.7275 272.678C96.988 272.418 97.3057 272.287 97.6807 272.287C97.9202 272.287 98.1546 272.355 98.3838 272.491C98.613 272.626 98.7952 272.814 98.9307 273.053ZM118.712 273.053L122.743 279.991L126.774 273.053C126.931 272.793 127.113 272.6 127.321 272.475C127.53 272.35 127.764 272.287 128.024 272.287C128.389 272.287 128.701 272.418 128.962 272.678C129.233 272.928 129.368 273.246 129.368 273.631C129.368 273.746 129.342 273.871 129.29 274.006C129.248 274.142 129.186 274.272 129.103 274.397L124.274 282.647L129.103 290.897C129.207 291.084 129.274 291.235 129.306 291.35C129.347 291.465 129.368 291.574 129.368 291.678C129.368 292.053 129.233 292.376 128.962 292.647C128.691 292.918 128.379 293.053 128.024 293.053C127.795 293.053 127.571 292.98 127.353 292.834C127.144 292.699 126.962 292.506 126.806 292.256L122.712 285.334L118.649 292.256C118.472 292.527 118.285 292.725 118.087 292.85C117.889 292.985 117.67 293.053 117.431 293.053C117.066 293.053 116.754 292.923 116.493 292.662C116.243 292.402 116.118 292.074 116.118 291.678C116.118 291.553 116.134 291.423 116.165 291.287C116.207 291.152 116.264 291.027 116.337 290.912L121.134 282.725L116.384 274.412C116.28 274.246 116.207 274.105 116.165 273.991C116.134 273.876 116.118 273.756 116.118 273.631C116.118 273.246 116.248 272.928 116.509 272.678C116.769 272.418 117.087 272.287 117.462 272.287C117.701 272.287 117.936 272.355 118.165 272.491C118.394 272.626 118.576 272.814 118.712 273.053Z" fill="#646B6D"/>
</g>
<rect x="0.5" y="0.5" width="614.531" height="344.709" rx="24.5" stroke="url(#paint4_linear_100_765)"/>
<defs>
<linearGradient id="paint0_linear_100_765" x1="24.5" y1="22" x2="606.389" y2="337.916" gradientUnits="userSpaceOnUse">
<stop stop-color="#2D3134"/>
<stop offset="1" stop-color="#0F1415"/>
</linearGradient>
<linearGradient id="paint1_linear_100_765" x1="355.703" y1="10.1266" x2="476.797" y2="401.873" gradientUnits="userSpaceOnUse">
<stop stop-color="#ADC5D5"/>
<stop offset="0.967176" stop-color="#ADC5D5" stop-opacity="0"/>
</linearGradient>
<linearGradient id="paint2_linear_100_765" x1="-118" y1="-514.5" x2="371.5" y2="529.5" gradientUnits="userSpaceOnUse">
<stop stop-color="#9EAFCE"/>
<stop offset="0.923951" stop-color="#9EAFCE" stop-opacity="0"/>
</linearGradient>
<linearGradient id="paint3_linear_100_765" x1="589.5" y1="588" x2="364" y2="-156" gradientUnits="userSpaceOnUse">
<stop stop-color="white"/>
<stop offset="0.842489" stop-color="white" stop-opacity="0"/>
</linearGradient>
<linearGradient id="paint4_linear_100_765" x1="-54.0528" y1="-289.707" x2="493.408" y2="368.056" gradientUnits="userSpaceOnUse">
<stop offset="0.156886" stop-color="#F1F2F2"/>
<stop offset="1" stop-color="#1D1F21"/>
</linearGradient>
<clipPath id="clip0_100_765">
<rect width="615.531" height="345.709" rx="25" fill="white"/>
</clipPath>
<clipPath id="clip1_100_765">
<rect width="272" height="217" fill="white" transform="matrix(-1 0 0 1 544 69)"/>
</clipPath>
<clipPath id="clip2_100_765">
<rect width="69" height="55" fill="white" transform="matrix(-1 0 0 1 102.728 27.2366)"/>
</clipPath>
</defs>
</svg>
