<svg width="538" height="302" viewBox="0 0 538 302" fill="none" xmlns="http://www.w3.org/2000/svg">
<g clip-path="url(#clip0_139_3173)">
<rect width="538" height="302" rx="20" fill="url(#paint0_linear_139_3173)"/>
<g clip-path="url(#clip1_139_3173)">
<path fill-rule="evenodd" clip-rule="evenodd" d="M330.371 60.3091L297.173 128.277L237.74 249.976H356.614H388.902L362.015 195.07H352.114H317.759L334.936 159.897L336.482 156.732L336.387 156.687L383.172 60.9674L382.849 60.3091H330.371ZM386.469 195.07H386.41L413.306 249.976H475.479L420.898 138.211H358.702L369.291 159.897L386.469 195.07Z" fill="url(#paint1_linear_139_3173)" fill-opacity="0.1"/>
</g>
<path fill-rule="evenodd" clip-rule="evenodd" d="M532.774 543.847L389.267 250.277H388.982L313.883 404.298L385.846 551.329L385.061 551.713L313.397 405.294L222.4 591.919L221.614 591.536L312.91 404.299L286.627 350.599L181.32 566.571L180.534 566.188L286.14 349.603L264.576 305.546L147.232 545.595L146.447 545.211L264.089 304.551L237.688 250.608L93.9156 544.721L93.1303 544.337L236.877 250.277L-104.885 250.277L-104.885 249.403L237.098 249.403L182.798 138.461L-104.885 138.461L-104.885 137.587L182.37 137.587L144.745 60.7133L-104.885 60.7133L-104.885 59.8392L144.317 59.8392L40.6878 -151.891L41.4729 -152.275L145.29 59.8392L296.175 59.8392L188.401 -160.632L189.186 -161.016L297.148 59.8392H329.969L356.458 5.65179L275.805 -159.758L276.591 -160.141L356.945 4.6559L437.503 -160.142L438.288 -159.758L357.43 5.6523L383.782 59.6973L490.82 -159.268L491.605 -158.884L384.686 59.8392H427.427L524.033 -138.29L524.819 -137.907L428.399 59.8392H480.866L565.113 -112.943L565.899 -112.56L481.838 59.8392L673.013 59.8392V60.7132L481.412 60.7132L443.929 137.587L673.013 137.587V138.461L443.503 138.461L432.845 160.319L476.282 249.403L673.013 249.403V250.277L476.708 250.277L620.089 544.337L619.304 544.72L475.735 250.277H390.24L533.559 543.463L532.774 543.847ZM145.718 60.7133L183.343 137.587L291.964 137.587L313.072 94.4057L296.602 60.7133L145.718 60.7133ZM183.771 138.461L237.687 248.619L291.536 138.461H183.771ZM238.499 250.277L264.576 303.557L290.62 250.277H238.499ZM265.062 304.551L286.625 348.607L334.57 250.277H291.593L265.062 304.551ZM287.113 349.603L335.543 250.277H388.01L313.396 403.303L287.113 349.603ZM389.813 249.403L389.61 248.989L432.359 161.316L475.309 249.403H389.813ZM442.531 138.461L432.359 159.322L422.187 138.461H442.531ZM480.44 60.7132L442.957 137.587H421.761L406.125 105.52L427.973 60.7132H480.44ZM389.123 247.993L431.873 160.319L421.215 138.461H390.064L362.857 194.26L389.123 247.993ZM362.371 195.256L388.638 248.989L388.436 249.403L335.969 249.403L362.371 195.256ZM405.639 104.523L427.001 60.7132H384.278L405.639 104.523ZM405.153 105.52L389.518 137.587H346.68L383.781 61.6895L405.153 105.52ZM390.49 137.587L405.639 106.517L420.788 137.587H390.49ZM389.091 138.461H346.253L340.917 149.377L362.37 193.264L389.091 138.461ZM361.884 194.26L340.43 150.372L292.021 249.403H334.997L361.884 194.26ZM340.43 148.382L345.28 138.461H335.58L340.43 148.382ZM345.707 137.587L383.286 60.7132L330.515 60.7133L314.045 94.4057L335.153 137.587H345.707ZM291.048 249.403L339.944 149.377L334.608 138.461H292.509L238.277 249.403H291.048ZM356.944 6.64819L330.942 59.8392L382.879 59.8392L356.944 6.64819ZM297.575 60.7133L313.558 93.4106L329.542 60.7133H297.575ZM313.558 95.4008L292.936 137.587H334.18L313.558 95.4008Z" fill="url(#paint2_linear_139_3173)" fill-opacity="0.65"/>
<path d="M217.637 -152.083L561.136 551.521" stroke="url(#paint3_linear_139_3173)" stroke-opacity="0.1" stroke-width="0.874043"/>
<g clip-path="url(#clip2_139_3173)">
<path d="M67.1939 57.9616H67.2087L62.8512 49.0467L60.1649 43.5503H75.9425L89.7886 71.878H74.0165L67.1939 57.9616Z" fill="white"/>
<path d="M59.5815 42.104L59.5481 42.286L59.5202 42.2291L59.5815 42.104Z" fill="white"/>
<path d="M44.5566 41.0325L52.9781 23.8057H66.2906L66.3724 23.9725L54.5043 48.2334L54.5285 48.2447L54.1362 49.0467L49.7787 57.9616H58.4938H61.0054L67.8262 71.878H59.6353H29.4799L44.5566 41.0325Z" fill="white"/>
</g>
<path d="M362.423 42.6139V45.277L365.004 52.0577L367.585 45.277V42.6139C367.585 42.3271 367.667 42.0915 367.831 41.9072C367.995 41.7228 368.207 41.6306 368.466 41.6306C368.726 41.6306 368.937 41.7228 369.101 41.9072C369.265 42.0847 369.347 42.3203 369.347 42.6139V45.615L365.885 54.4647C365.776 54.7583 365.653 54.9564 365.516 55.0588C365.387 55.168 365.216 55.2227 365.004 55.2227C364.786 55.2227 364.605 55.1646 364.461 55.0485C364.318 54.9325 364.198 54.7378 364.103 54.4647L360.661 45.615V42.6139C360.661 42.3135 360.74 42.0745 360.897 41.8969C361.061 41.7194 361.276 41.6306 361.542 41.6306C361.795 41.6306 362.003 41.7228 362.167 41.9072C362.338 42.0915 362.423 42.3271 362.423 42.6139ZM381.331 41.6306C381.625 41.6306 381.86 41.7126 382.038 41.8764C382.222 42.0403 382.314 42.252 382.314 42.5115C382.314 42.7641 382.222 42.9758 382.038 43.1465C381.853 43.3104 381.618 43.3924 381.331 43.3924H378.852V53.4609H381.331C381.625 53.4609 381.86 53.5429 382.038 53.7068C382.222 53.8706 382.314 54.0823 382.314 54.3418C382.314 54.6013 382.222 54.813 382.038 54.9768C381.853 55.1407 381.618 55.2227 381.331 55.2227H374.612C374.318 55.2227 374.079 55.1407 373.895 54.9768C373.717 54.813 373.628 54.6013 373.628 54.3418C373.628 54.0823 373.721 53.8706 373.905 53.7068C374.089 53.5429 374.325 53.4609 374.612 53.4609H377.091V43.3924H374.612C374.318 43.3924 374.079 43.3104 373.895 43.1465C373.717 42.9827 373.628 42.771 373.628 42.5115C373.628 42.252 373.721 42.0403 373.905 41.8764C374.089 41.7126 374.325 41.6306 374.612 41.6306H381.331ZM388.357 43.3924V46.0759H392.618C392.857 46.0759 393.062 45.9838 393.233 45.7994C393.411 45.615 393.499 45.4068 393.499 45.1746V44.2732C393.499 44.0411 393.411 43.8362 393.233 43.6587C393.055 43.4811 392.851 43.3924 392.618 43.3924H388.357ZM386.596 41.6306H392.618C393.342 41.6306 393.967 41.8901 394.493 42.4091C395.019 42.928 395.282 43.5494 395.282 44.2732V45.1746C395.282 45.9052 395.022 46.5335 394.503 47.0592C393.984 47.5782 393.356 47.8377 392.618 47.8377H391.676L395.107 53.8194C395.169 53.9218 395.213 54.014 395.241 54.096C395.268 54.1779 395.282 54.253 395.282 54.3213C395.282 54.5671 395.196 54.7754 395.025 54.9461C394.855 55.1168 394.646 55.2022 394.401 55.2022C394.23 55.2022 394.073 55.1578 393.929 55.069C393.786 54.9803 393.67 54.8573 393.581 54.7003L389.617 47.8377H388.357V54.2394C388.357 54.533 388.276 54.7686 388.112 54.9461C387.948 55.1305 387.736 55.2227 387.477 55.2227C387.217 55.2227 387.005 55.1305 386.842 54.9461C386.678 54.7617 386.596 54.5262 386.596 54.2394V41.6306ZM399.563 41.6306H408.249V43.8943C408.249 44.1879 408.167 44.4269 408.003 44.6112C407.839 44.7888 407.627 44.8776 407.368 44.8776C407.108 44.8776 406.897 44.7854 406.733 44.601C406.569 44.4166 406.487 44.181 406.487 43.8943V43.3924H404.787V54.2394C404.787 54.533 404.705 54.7686 404.541 54.9461C404.377 55.1305 404.165 55.2227 403.906 55.2227C403.646 55.2227 403.435 55.1305 403.271 54.9461C403.107 54.7617 403.025 54.5262 403.025 54.2394V43.3924H401.325V43.8943C401.325 44.1879 401.243 44.4269 401.079 44.6112C400.915 44.7888 400.703 44.8776 400.444 44.8776C400.184 44.8776 399.973 44.7854 399.809 44.601C399.645 44.4166 399.563 44.181 399.563 43.8943V41.6306ZM414.292 42.6139V52.5801C414.292 52.8259 414.377 53.0341 414.548 53.2049C414.726 53.3756 414.934 53.4609 415.173 53.4609H418.553C418.785 53.4609 418.993 53.3722 419.178 53.1946C419.362 53.0171 419.454 52.8122 419.454 52.5801V42.6139C419.454 42.3135 419.533 42.0745 419.69 41.8969C419.854 41.7194 420.069 41.6306 420.335 41.6306C420.588 41.6306 420.796 41.7228 420.96 41.9072C421.131 42.0915 421.216 42.3271 421.216 42.6139V52.5801C421.216 53.3039 420.957 53.9253 420.438 54.4442C419.919 54.9632 419.297 55.2227 418.573 55.2227H415.193C414.456 55.2227 413.828 54.9632 413.309 54.4442C412.79 53.9321 412.53 53.3107 412.53 52.5801V42.6139C412.53 42.3135 412.609 42.0745 412.766 41.8969C412.93 41.7194 413.145 41.6306 413.411 41.6306C413.664 41.6306 413.872 41.7228 414.036 41.9072C414.207 42.0915 414.292 42.3271 414.292 42.6139ZM429.84 45.656L428.417 50.5008H431.244L429.84 45.656ZM430.783 42.6139L434.101 54.014C434.122 54.0755 434.135 54.1369 434.142 54.1984C434.156 54.2599 434.163 54.3145 434.163 54.3623C434.163 54.6013 434.077 54.8027 433.907 54.9666C433.736 55.1373 433.535 55.2227 433.302 55.2227C433.098 55.2227 432.913 55.1544 432.749 55.0178C432.592 54.8881 432.483 54.7139 432.421 54.4954L431.766 52.2625H427.925L427.259 54.4852C427.177 54.7378 427.061 54.9222 426.911 55.0383C426.768 55.1612 426.583 55.2227 426.358 55.2227C426.132 55.2227 425.934 55.1373 425.764 54.9666C425.6 54.8027 425.518 54.6081 425.518 54.3828C425.518 54.2803 425.521 54.2052 425.528 54.1574C425.535 54.1028 425.545 54.0516 425.559 54.0038L428.878 42.6139C428.98 42.2452 429.103 41.9891 429.246 41.8457C429.396 41.7023 429.595 41.6306 429.84 41.6306C430.079 41.6306 430.271 41.6989 430.414 41.8355C430.557 41.972 430.68 42.2315 430.783 42.6139ZM440.226 42.6139V53.4609H446.167C446.461 53.4609 446.696 53.5429 446.874 53.7068C447.058 53.8706 447.15 54.0823 447.15 54.3418C447.15 54.6013 447.058 54.813 446.874 54.9768C446.69 55.1407 446.454 55.2227 446.167 55.2227H438.465V42.6139C438.465 42.3135 438.543 42.0745 438.7 41.8969C438.864 41.7194 439.079 41.6306 439.346 41.6306C439.598 41.6306 439.806 41.7228 439.97 41.9072C440.141 42.0915 440.226 42.3271 440.226 42.6139ZM462.515 55.2227C461.968 55.2227 461.494 55.0895 461.091 54.8232C460.695 54.5569 460.353 54.1369 460.067 53.5634L458.243 49.9374C458.134 49.7258 458.052 49.497 457.997 49.2512C457.95 49.0054 457.926 48.739 457.926 48.4523C457.926 48.1518 457.95 47.8718 457.997 47.6124C458.052 47.3529 458.134 47.1207 458.243 46.9158L460.067 43.2899C460.34 42.7232 460.678 42.3066 461.081 42.0403C461.483 41.7672 461.961 41.6306 462.515 41.6306H465.628C465.922 41.6306 466.158 41.7126 466.335 41.8764C466.519 42.0403 466.612 42.252 466.612 42.5115C466.612 42.7641 466.519 42.9758 466.335 43.1465C466.151 43.3104 465.915 43.3924 465.628 43.3924H462.515C462.344 43.3924 462.183 43.4402 462.033 43.5358C461.883 43.6314 461.763 43.7645 461.675 43.9352L459.872 47.5919C459.817 47.7148 459.776 47.8445 459.749 47.9811C459.722 48.1177 459.708 48.2645 459.708 48.4215C459.708 48.5854 459.722 48.7356 459.749 48.8722C459.776 49.0088 459.817 49.1385 459.872 49.2614L461.675 52.8976C461.763 53.0683 461.883 53.2049 462.033 53.3073C462.183 53.4097 462.344 53.4609 462.515 53.4609H465.628C465.922 53.4609 466.158 53.5429 466.335 53.7068C466.519 53.8706 466.612 54.0823 466.612 54.3418C466.612 54.6013 466.519 54.813 466.335 54.9768C466.151 55.1407 465.915 55.2227 465.628 55.2227H462.515ZM475.236 45.656L473.812 50.5008H476.639L475.236 45.656ZM476.178 42.6139L479.497 54.014C479.517 54.0755 479.531 54.1369 479.538 54.1984C479.552 54.2599 479.558 54.3145 479.558 54.3623C479.558 54.6013 479.473 54.8027 479.302 54.9666C479.132 55.1373 478.93 55.2227 478.698 55.2227C478.493 55.2227 478.309 55.1544 478.145 55.0178C477.988 54.8881 477.879 54.7139 477.817 54.4954L477.162 52.2625H473.321L472.655 54.4852C472.573 54.7378 472.457 54.9222 472.307 55.0383C472.163 55.1612 471.979 55.2227 471.753 55.2227C471.528 55.2227 471.33 55.1373 471.159 54.9666C470.995 54.8027 470.914 54.6081 470.914 54.3828C470.914 54.2803 470.917 54.2052 470.924 54.1574C470.931 54.1028 470.941 54.0516 470.954 54.0038L474.273 42.6139C474.376 42.2452 474.498 41.9891 474.642 41.8457C474.792 41.7023 474.99 41.6306 475.236 41.6306C475.475 41.6306 475.666 41.6989 475.81 41.8355C475.953 41.972 476.076 42.2315 476.178 42.6139ZM485.622 43.3924V46.0759H489.883C490.122 46.0759 490.327 45.9838 490.498 45.7994C490.675 45.615 490.764 45.4068 490.764 45.1746V44.2732C490.764 44.0411 490.675 43.8362 490.498 43.6587C490.32 43.4811 490.115 43.3924 489.883 43.3924H485.622ZM483.86 41.6306H489.883C490.607 41.6306 491.232 41.8901 491.757 42.4091C492.283 42.928 492.546 43.5494 492.546 44.2732V45.1746C492.546 45.9052 492.287 46.5335 491.768 47.0592C491.249 47.5782 490.62 47.8377 489.883 47.8377H488.941L492.372 53.8194C492.433 53.9218 492.478 54.014 492.505 54.096C492.532 54.1779 492.546 54.253 492.546 54.3213C492.546 54.5671 492.461 54.7754 492.29 54.9461C492.119 55.1168 491.911 55.2022 491.665 55.2022C491.494 55.2022 491.337 55.1578 491.194 55.069C491.051 54.9803 490.935 54.8573 490.846 54.7003L486.882 47.8377H485.622V54.2394C485.622 54.533 485.54 54.7686 485.376 54.9461C485.212 55.1305 485.001 55.2227 484.741 55.2227C484.482 55.2227 484.27 55.1305 484.106 54.9461C483.942 54.7617 483.86 54.5262 483.86 54.2394V41.6306ZM500.914 43.3924H500.331V53.4609H500.914C501.092 53.4609 501.256 53.4131 501.406 53.3175C501.556 53.2219 501.672 53.0888 501.754 52.9181L503.557 49.2614C503.618 49.1385 503.663 49.0088 503.69 48.8722C503.717 48.7356 503.731 48.5854 503.731 48.4215C503.731 48.2645 503.717 48.1177 503.69 47.9811C503.663 47.8445 503.618 47.7148 503.557 47.5919L501.754 43.9557C501.665 43.785 501.546 43.6484 501.396 43.546C501.246 43.4436 501.085 43.3924 500.914 43.3924ZM500.914 41.6306C501.467 41.6306 501.942 41.7638 502.338 42.0301C502.734 42.2964 503.079 42.7163 503.373 43.2899L505.196 46.9158C505.298 47.1275 505.377 47.3597 505.431 47.6124C505.486 47.8582 505.513 48.1279 505.513 48.4215C505.513 48.7151 505.486 48.9883 505.431 49.2409C505.377 49.4936 505.298 49.7258 505.196 49.9374L503.373 53.5634C503.093 54.1301 502.751 54.5467 502.348 54.813C501.952 55.0861 501.474 55.2227 500.914 55.2227H497.811C497.517 55.2227 497.278 55.1407 497.094 54.9768C496.916 54.813 496.828 54.6013 496.828 54.3418C496.828 54.0823 496.92 53.8706 497.104 53.7068C497.288 53.5429 497.524 53.4609 497.811 53.4609H498.569V43.3924H497.811C497.517 43.3924 497.278 43.3104 497.094 43.1465C496.916 42.9827 496.828 42.771 496.828 42.5115C496.828 42.252 496.92 42.0403 497.104 41.8764C497.288 41.7126 497.524 41.6306 497.811 41.6306H500.914Z" fill="white"/>
</g>
<rect x="0.437021" y="0.437021" width="537.126" height="301.126" rx="19.563" stroke="url(#paint4_linear_139_3173)" stroke-width="0.874043"/>
<defs>
<linearGradient id="paint0_linear_139_3173" x1="21.4141" y1="19.2185" x2="529.884" y2="295.425" gradientUnits="userSpaceOnUse">
<stop stop-color="#2D3134"/>
<stop offset="1" stop-color="#0F1415"/>
</linearGradient>
<linearGradient id="paint1_linear_139_3173" x1="310.9" y1="8.85119" x2="416.741" y2="351.255" gradientUnits="userSpaceOnUse">
<stop stop-color="#ADC5D5"/>
<stop offset="0.967176" stop-color="#ADC5D5" stop-opacity="0"/>
</linearGradient>
<linearGradient id="paint2_linear_139_3173" x1="-103.137" y1="-449.695" x2="324.707" y2="462.806" gradientUnits="userSpaceOnUse">
<stop stop-color="#9EAFCE"/>
<stop offset="0.923951" stop-color="#9EAFCE" stop-opacity="0"/>
</linearGradient>
<linearGradient id="paint3_linear_139_3173" x1="515.248" y1="513.937" x2="318.152" y2="-136.351" gradientUnits="userSpaceOnUse">
<stop stop-color="white"/>
<stop offset="0.842489" stop-color="white" stop-opacity="0"/>
</linearGradient>
<linearGradient id="paint4_linear_139_3173" x1="-47.2444" y1="-253.078" x2="430.952" y2="321.778" gradientUnits="userSpaceOnUse">
<stop offset="0.156886" stop-color="#F1F2F2"/>
<stop offset="1" stop-color="#1D1F21"/>
</linearGradient>
<clipPath id="clip0_139_3173">
<rect width="538" height="302" rx="20" fill="white"/>
</clipPath>
<clipPath id="clip1_139_3173">
<rect width="237.74" height="189.667" fill="white" transform="matrix(-1 0 0 1 475.479 60.3091)"/>
</clipPath>
<clipPath id="clip2_139_3173">
<rect width="60.3089" height="48.0723" fill="white" transform="matrix(-1 0 0 1 89.7886 23.8057)"/>
</clipPath>
</defs>
</svg>
