<svg width="32" height="32" viewBox="0 0 32 32" fill="none" xmlns="http://www.w3.org/2000/svg">
<path d="M26.5335 16.8802C26.3198 16.6369 26.2019 16.3241 26.2019 16.0002C26.2019 15.6763 26.3198 15.3635 26.5335 15.1202L28.2402 13.2002C28.4282 12.9904 28.545 12.7265 28.5738 12.4462C28.6025 12.1659 28.5417 11.8838 28.4002 11.6402L25.7335 7.02685C25.5934 6.78355 25.38 6.59069 25.1239 6.47577C24.8677 6.36085 24.5818 6.32973 24.3069 6.38685L21.8002 6.89352C21.4812 6.95942 21.1492 6.9063 20.8667 6.74419C20.5842 6.58207 20.3709 6.32216 20.2669 6.01352L19.4535 3.57352C19.3641 3.30869 19.1937 3.07867 18.9664 2.91597C18.7391 2.75328 18.4664 2.66613 18.1869 2.66685H12.8535C12.5628 2.65168 12.275 2.73209 12.0343 2.8958C11.7935 3.05952 11.613 3.29754 11.5202 3.57352L10.7735 6.01352C10.6695 6.32216 10.4561 6.58207 10.1737 6.74419C9.89119 6.9063 9.55914 6.95942 9.24019 6.89352L6.66685 6.38685C6.40625 6.35003 6.14059 6.39115 5.90332 6.50504C5.66605 6.61893 5.46779 6.80049 5.33352 7.02685L2.66685 11.6402C2.52173 11.8811 2.45648 12.1616 2.48043 12.4418C2.50438 12.722 2.6163 12.9874 2.80019 13.2002L4.49352 15.1202C4.70728 15.3635 4.82517 15.6763 4.82517 16.0002C4.82517 16.3241 4.70728 16.6369 4.49352 16.8802L2.80019 18.8002C2.6163 19.0129 2.50438 19.2784 2.48043 19.5586C2.45648 19.8387 2.52173 20.1193 2.66685 20.3602L5.33352 24.9735C5.47365 25.2168 5.68701 25.4097 5.94319 25.5246C6.19937 25.6395 6.48529 25.6706 6.76019 25.6135L9.26685 25.1069C9.58581 25.0409 9.91786 25.0941 10.2003 25.2562C10.4828 25.4183 10.6962 25.6782 10.8002 25.9869L11.6135 28.4269C11.7063 28.7028 11.8868 28.9408 12.1276 29.1046C12.3684 29.2683 12.6561 29.3487 12.9469 29.3335H18.2802C18.5597 29.3342 18.8324 29.2471 19.0597 29.0844C19.287 28.9217 19.4574 28.6917 19.5469 28.4269L20.3602 25.9869C20.4642 25.6782 20.6776 25.4183 20.96 25.2562C21.2425 25.0941 21.5746 25.0409 21.8935 25.1069L24.4002 25.6135C24.6751 25.6706 24.961 25.6395 25.2172 25.5246C25.4734 25.4097 25.6867 25.2168 25.8269 24.9735L28.4935 20.3602C28.6351 20.1166 28.6959 19.8344 28.6671 19.5542C28.6384 19.2739 28.5216 19.01 28.3335 18.8002L26.5335 16.8802ZM24.5469 18.6669L25.6135 19.8669L23.9069 22.8269L22.3335 22.5069C21.3732 22.3106 20.3743 22.4737 19.5263 22.9653C18.6783 23.4568 18.0404 24.2426 17.7335 25.1735L17.2269 26.6669H13.8135L13.3335 25.1469C13.0267 24.216 12.3887 23.4302 11.5407 22.9386C10.6928 22.447 9.69381 22.2839 8.73352 22.4802L7.16019 22.8002L5.42685 19.8535L6.49352 18.6535C7.14946 17.9202 7.5121 16.9708 7.5121 15.9869C7.5121 15.0029 7.14946 14.0535 6.49352 13.3202L5.42685 12.1202L7.13352 9.18685L8.70685 9.50685C9.66715 9.70315 10.6661 9.54003 11.5141 9.04845C12.362 8.55687 13 7.77106 13.3069 6.84019L13.8135 5.33352H17.2269L17.7335 6.85352C18.0404 7.7844 18.6783 8.57021 19.5263 9.06178C20.3743 9.55336 21.3732 9.71648 22.3335 9.52019L23.9069 9.20019L25.6135 12.1602L24.5469 13.3602C23.8983 14.0919 23.5401 15.0358 23.5401 16.0135C23.5401 16.9913 23.8983 17.9352 24.5469 18.6669ZM15.5202 10.6669C14.4654 10.6669 13.4342 10.9796 12.5571 11.5657C11.6801 12.1517 10.9965 12.9847 10.5928 13.9592C10.1892 14.9337 10.0835 16.0061 10.2893 17.0407C10.4951 18.0752 11.0031 19.0255 11.749 19.7714C12.4948 20.5173 13.4451 21.0253 14.4797 21.231C15.5143 21.4368 16.5866 21.3312 17.5612 20.9275C18.5357 20.5239 19.3687 19.8403 19.9547 18.9632C20.5407 18.0862 20.8535 17.055 20.8535 16.0002C20.8535 14.5857 20.2916 13.2291 19.2914 12.2289C18.2912 11.2288 16.9347 10.6669 15.5202 10.6669ZM15.5202 18.6669C14.9928 18.6669 14.4772 18.5105 14.0387 18.2174C13.6001 17.9244 13.2583 17.5079 13.0565 17.0207C12.8547 16.5334 12.8019 15.9972 12.9048 15.4799C13.0077 14.9627 13.2616 14.4875 13.6346 14.1146C14.0075 13.7416 14.4827 13.4877 14.9999 13.3848C15.5172 13.2819 16.0534 13.3347 16.5407 13.5365C17.0279 13.7383 17.4444 14.0801 17.7374 14.5187C18.0305 14.9572 18.1869 15.4728 18.1869 16.0002C18.1869 16.7074 17.9059 17.3857 17.4058 17.8858C16.9057 18.3859 16.2274 18.6669 15.5202 18.6669Z" fill="#CCCCCC"/>
</svg>
