<svg width="147" height="36" viewBox="0 0 147 36" fill="none" xmlns="http://www.w3.org/2000/svg">
<path d="M122.881 21.3634C122.881 19.0225 123.341 16.9464 124.26 15.135C125.208 13.3237 126.476 11.9303 128.064 10.955C129.68 9.97963 131.478 9.49195 133.456 9.49195C135.184 9.49195 136.689 9.84029 137.971 10.537C139.281 11.2336 140.326 12.1115 141.106 13.1704V9.86816H147V33.0258H141.106V29.6399C140.354 30.7267 139.309 31.6324 137.971 32.3569C136.661 33.0536 135.142 33.402 133.415 33.402C131.464 33.402 129.68 32.9004 128.064 31.8971C126.476 30.8939 125.208 29.4866 124.26 27.6753C123.341 25.836 122.881 23.7321 122.881 21.3634ZM141.106 21.447C141.106 20.0257 140.827 18.8135 140.27 17.8103C139.713 16.7792 138.96 15.9989 138.013 15.4695C137.065 14.9121 136.048 14.6334 134.961 14.6334C133.874 14.6334 132.871 14.8982 131.952 15.4277C131.032 15.9571 130.28 16.7374 129.694 17.7685C129.137 18.7717 128.858 19.97 128.858 21.3634C128.858 22.7567 129.137 23.9829 129.694 25.0418C130.28 26.0729 131.032 26.8671 131.952 27.4245C132.899 27.9818 133.902 28.2605 134.961 28.2605C136.048 28.2605 137.065 27.9957 138.013 27.4663C138.96 26.9089 139.713 26.1286 140.27 25.1254C140.827 24.0943 141.106 22.8682 141.106 21.447Z" fill="white"/>
<path d="M116.343 13.463C117.095 12.2368 118.071 11.2754 119.269 10.5787C120.495 9.88206 122.502 9.53372 124.063 9.53372L121.903 15.6784C120.063 15.6784 118.67 16.1104 117.722 16.9743C116.803 17.8381 116.343 19.343 116.343 21.4887V33.0257H110.491V9.86813H116.343V13.463Z" fill="white"/>
<path d="M101.29 14.6752V25.8778C101.29 26.6581 101.472 27.2294 101.834 27.5917C102.224 27.9261 102.865 28.0933 103.757 28.0933H106.474V33.0257H102.795C97.8627 33.0257 95.3965 30.6292 95.3965 25.836V4.14145H101.29V9.86815H106.474V14.6752H101.29Z" fill="white"/>
<path d="M84.0169 33.402C82.1219 33.402 80.422 33.0676 78.9172 32.3987C77.4124 31.7021 76.2141 30.7685 75.3223 29.5981C74.4585 28.4277 73.9847 27.1319 73.9011 25.7106H79.795C79.9065 26.6024 80.3384 27.3409 81.0908 27.9261C81.8711 28.5113 82.8325 28.8039 83.9751 28.8039C85.0898 28.8039 85.9537 28.5809 86.5667 28.1351C87.2077 27.6892 87.5282 27.1179 87.5282 26.4212C87.5282 25.6688 87.138 25.1115 86.3577 24.7492C85.6053 24.3591 84.3931 23.9411 82.7211 23.4952C80.9933 23.0772 79.5721 22.6452 78.4574 22.1994C77.3706 21.7535 76.4231 21.0708 75.615 20.1511C74.8347 19.2315 74.4445 17.9914 74.4445 16.4309C74.4445 15.149 74.8068 13.9786 75.5314 12.9196C76.2838 11.8607 77.3427 11.0246 78.7082 10.4116C80.1016 9.79849 81.7318 9.49195 83.5989 9.49195C86.3577 9.49195 88.5592 10.1886 90.2034 11.582C91.8476 12.9475 92.7533 14.8006 92.9205 17.1415H87.3192C87.2356 16.2219 86.8454 15.4973 86.1487 14.9678C85.4799 14.4105 84.5742 14.1318 83.4317 14.1318C82.3727 14.1318 81.5507 14.3269 80.9654 14.717C80.4081 15.1072 80.1294 15.6506 80.1294 16.3473C80.1294 17.1275 80.5196 17.7267 81.2999 18.1447C82.0801 18.5348 83.2924 18.9389 84.9365 19.3569C86.6085 19.7749 87.988 20.2069 89.0748 20.6527C90.1616 21.0986 91.0952 21.7953 91.8754 22.7428C92.6836 23.6624 93.1016 24.8886 93.1295 26.4212C93.1295 27.7589 92.7533 28.9572 92.0008 30.0161C91.2763 31.0751 90.2173 31.9111 88.824 32.5242C87.4585 33.1094 85.8561 33.402 84.0169 33.402Z" fill="white"/>
<path d="M47.5149 21.3634C47.5149 19.0225 47.9747 16.9464 48.8943 15.135C49.8418 13.3237 51.1098 11.9303 52.6982 10.955C54.3145 9.97963 56.1119 9.49195 58.0905 9.49195C59.8182 9.49195 61.3231 9.84029 62.605 10.537C63.9147 11.2336 64.9597 12.1115 65.74 13.1704V9.86816H71.6339V33.0258H65.74V29.6399C64.9876 30.7267 63.9426 31.6324 62.605 32.3569C61.2952 33.0536 59.7764 33.402 58.0487 33.402C56.098 33.402 54.3145 32.9004 52.6982 31.8971C51.1098 30.8939 49.8418 29.4866 48.8943 27.6753C47.9747 25.836 47.5149 23.7321 47.5149 21.3634ZM65.74 21.447C65.74 20.0257 65.4613 18.8135 64.904 17.8103C64.3467 16.7792 63.5942 15.9989 62.6468 15.4695C61.6993 14.9121 60.6821 14.6334 59.5953 14.6334C58.5085 14.6334 57.5053 14.8982 56.5856 15.4277C55.666 15.9571 54.9136 16.7374 54.3284 17.7685C53.7711 18.7717 53.4924 19.97 53.4924 21.3634C53.4924 22.7567 53.7711 23.9829 54.3284 25.0418C54.9136 26.0729 55.666 26.8671 56.5856 27.4245C57.5331 27.9818 58.5364 28.2605 59.5953 28.2605C60.6821 28.2605 61.6993 27.9957 62.6468 27.4663C63.5942 26.9089 64.3467 26.1286 64.904 25.1254C65.4613 24.0943 65.74 22.8682 65.74 21.447Z" fill="white"/>
<g clip-path="url(#clip0_121_1119)">
<path d="M27.8565 25.2934H27.8675L24.6489 18.8684L22.6647 14.907H34.3184L44.5454 35.3232H32.8958L27.8565 25.2934Z" fill="white"/>
<path d="M22.2336 13.8644L22.2086 13.9972L22.1878 13.9557L22.2336 13.8644Z" fill="white"/>
<path d="M11.1359 13.0924L17.3561 0.676758H27.189L27.2495 0.797006L18.4834 18.2822L18.5013 18.2904L18.2116 18.8684L14.993 25.2934H21.4302H23.2853L28.3232 35.3232H22.2733H-0.000143051L11.1359 13.0924Z" fill="white"/>
</g>
<defs>
<clipPath id="clip0_121_1119">
<rect width="44.5454" height="34.6465" fill="white" transform="matrix(-1 0 0 1 44.5454 0.676773)"/>
</clipPath>
</defs>
</svg>
