<svg width="40" height="41" viewBox="0 0 40 41" fill="none" xmlns="http://www.w3.org/2000/svg">
<g id="bxs:gas-pump">
<path id="Vector" d="M32.6935 11.2919L32.7168 11.2636L26.0502 5.86361L23.9502 8.45361L27.3952 11.2436C26.5406 11.7629 25.862 12.5274 25.4476 13.4375C25.0333 14.3476 24.9023 15.3614 25.0718 16.3469C25.3218 17.8453 26.3535 19.1403 27.6885 19.8653C29.1802 20.6769 30.4885 20.6019 31.6518 20.1886L31.6268 30.4919C31.6288 30.7679 31.562 31.04 31.4324 31.2837C31.3028 31.5273 31.1144 31.7348 30.8845 31.8874C30.6545 32.0399 30.3901 32.1327 30.1152 32.1574C29.8403 32.1821 29.5636 32.1378 29.3102 32.0286C29.1117 31.9435 28.9317 31.8207 28.7802 31.6669C28.4696 31.3547 28.2953 30.9323 28.2952 30.4919L28.3335 27.1586C28.3352 26.5026 28.2069 25.8527 27.956 25.2465C27.7051 24.6404 27.3366 24.0899 26.8718 23.6269C26.4075 23.1616 25.856 22.7924 25.2489 22.5405C24.6417 22.2885 23.9908 22.1587 23.3335 22.1586H21.6668V8.82528C21.6668 7.94122 21.3156 7.09338 20.6905 6.46825C20.0654 5.84313 19.2176 5.49194 18.3335 5.49194H6.66683C5.78277 5.49194 4.93493 5.84313 4.30981 6.46825C3.68469 7.09338 3.3335 7.94122 3.3335 8.82528V32.1586C3.3335 33.0427 3.68469 33.8905 4.30981 34.5156C4.93493 35.1408 5.78277 35.4919 6.66683 35.4919H18.3335C19.2176 35.4919 20.0654 35.1408 20.6905 34.5156C21.3156 33.8905 21.6668 33.0427 21.6668 32.1586V25.4919H23.3335C23.5613 25.4919 23.7785 25.5353 23.9852 25.6219C24.3816 25.7959 24.6977 26.1132 24.8702 26.5103C24.9564 26.7155 25.0006 26.936 25.0002 27.1586L24.9602 30.4919C24.9602 31.1686 25.0918 31.8236 25.3535 32.4386C25.6052 33.0369 25.9668 33.5719 26.4218 34.0236C26.8845 34.4912 27.4357 34.8618 28.0432 35.1139C28.6507 35.3661 29.3024 35.4946 29.9602 35.4919C30.6391 35.4919 31.2879 35.3608 31.9068 35.0986C32.5035 34.8486 33.0402 34.4869 33.4918 34.0303C33.9586 33.5671 34.3288 33.0158 34.5809 32.4084C34.8329 31.801 34.9619 31.1496 34.9602 30.4919L35.0002 15.4919C34.9981 14.6547 34.7857 13.8315 34.3827 13.0976C33.9797 12.3638 33.3989 11.7429 32.6935 11.2919ZM18.3335 13.8253H6.66683V8.82528H18.3335V13.8253ZM30.0002 17.1586C29.5581 17.1586 29.1342 16.983 28.8216 16.6705C28.5091 16.3579 28.3335 15.934 28.3335 15.4919C28.3335 15.0499 28.5091 14.626 28.8216 14.3134C29.1342 14.0009 29.5581 13.8253 30.0002 13.8253C30.4422 13.8253 30.8661 14.0009 31.1787 14.3134C31.4912 14.626 31.6668 15.0499 31.6668 15.4919C31.6668 15.934 31.4912 16.3579 31.1787 16.6705C30.8661 16.983 30.4422 17.1586 30.0002 17.1586Z" fill="#F2BA2E"/>
</g>
</svg>
