<svg width="40" height="40" viewBox="0 0 40 40" fill="none" xmlns="http://www.w3.org/2000/svg">
<path d="M2.5 32.5C2.5 32.8315 2.6317 33.1495 2.86612 33.3839C3.10054 33.6183 3.41848 33.75 3.75 33.75H36.25C36.5815 33.75 36.8995 33.6183 37.1339 33.3839C37.3683 33.1495 37.5 32.8315 37.5 32.5V17.3438H2.5V32.5ZM7.65625 21.7188C7.65625 21.553 7.7221 21.394 7.83931 21.2768C7.95652 21.1596 8.11549 21.0938 8.28125 21.0938H15.4688C15.6345 21.0938 15.7935 21.1596 15.9107 21.2768C16.0279 21.394 16.0938 21.553 16.0938 21.7188V26.7188C16.0938 26.8845 16.0279 27.0435 15.9107 27.1607C15.7935 27.2779 15.6345 27.3438 15.4688 27.3438H8.28125C8.11549 27.3438 7.95652 27.2779 7.83931 27.1607C7.7221 27.0435 7.65625 26.8845 7.65625 26.7188V21.7188ZM36.25 6.25H3.75C3.41848 6.25 3.10054 6.3817 2.86612 6.61612C2.6317 6.85054 2.5 7.16848 2.5 7.5V12.6562H37.5V7.5C37.5 7.16848 37.3683 6.85054 37.1339 6.61612C36.8995 6.3817 36.5815 6.25 36.25 6.25Z" fill="#3148F2"/>
</svg>
