<svg width="40" height="40" viewBox="0 0 40 40" fill="none" xmlns="http://www.w3.org/2000/svg">
<path d="M10.0001 36.6667C9.08341 36.6667 8.29897 36.3406 7.64675 35.6884C6.99453 35.0362 6.66786 34.2512 6.66675 33.3334V16.6667C6.66675 15.7501 6.99341 14.9656 7.64675 14.3134C8.30008 13.6612 9.08453 13.3345 10.0001 13.3334H11.6667V10.0001C11.6667 7.69453 12.4795 5.72953 14.1051 4.10508C15.7306 2.48064 17.6956 1.66786 20.0001 1.66675C22.3045 1.66564 24.2701 2.47842 25.8967 4.10508C27.5234 5.73175 28.3356 7.69675 28.3334 10.0001V13.3334H30.0001C30.9167 13.3334 31.7017 13.6601 32.3551 14.3134C33.0084 14.9668 33.3345 15.7512 33.3334 16.6667V33.3334C33.3334 34.2501 33.0073 35.0351 32.3551 35.6884C31.7029 36.3418 30.9179 36.6679 30.0001 36.6667H10.0001ZM20.0001 28.3334C20.9167 28.3334 21.7017 28.0073 22.3551 27.3551C23.0084 26.7029 23.3345 25.9179 23.3334 25.0001C23.3323 24.0823 23.0062 23.2979 22.3551 22.6468C21.704 21.9956 20.919 21.669 20.0001 21.6667C19.0812 21.6645 18.2967 21.9912 17.6467 22.6468C16.9967 23.3023 16.6701 24.0868 16.6667 25.0001C16.6634 25.9134 16.9901 26.6984 17.6467 27.3551C18.3034 28.0118 19.0879 28.3379 20.0001 28.3334ZM15.0001 13.3334H25.0001V10.0001C25.0001 8.61119 24.514 7.43064 23.5417 6.45842C22.5695 5.48619 21.389 5.00008 20.0001 5.00008C18.6112 5.00008 17.4306 5.48619 16.4584 6.45842C15.4862 7.43064 15.0001 8.61119 15.0001 10.0001V13.3334Z" fill="#3148F2"/>
</svg>
