<svg width="40" height="41" viewBox="0 0 40 41" fill="none" xmlns="http://www.w3.org/2000/svg">
<g id="solar:cup-bold">
<path id="Vector" d="M36.6668 14.0946V14.2162C36.6668 15.6496 36.6668 16.3679 36.3218 16.9546C35.9768 17.5412 35.3485 17.8896 34.0952 18.5879L32.7735 19.3212C33.6835 16.2412 33.9885 12.9312 34.1002 10.1012L34.1168 9.73291L34.1202 9.64624C35.2052 10.0229 35.8152 10.3046 36.1952 10.8312C36.6668 11.4862 36.6668 12.3562 36.6668 14.0946ZM3.3335 14.0946V14.2162C3.3335 15.6496 3.3335 16.3679 3.6785 16.9546C4.0235 17.5412 4.65183 17.8896 5.90516 18.5879L7.2285 19.3212C6.31683 16.2412 6.01183 12.9312 5.90016 10.1012L5.8835 9.73291L5.88183 9.64624C4.79516 10.0229 4.18516 10.3046 3.80516 10.8312C3.3335 11.4862 3.3335 12.3579 3.3335 14.0946Z" fill="#F2BA2E"/>
<path id="Vector_2" fill-rule="evenodd" clip-rule="evenodd" d="M27.295 4.40293C24.8836 4.00792 22.4435 3.81448 20 3.8246C17.0283 3.8246 14.5783 4.08626 12.705 4.40293C10.8066 4.72293 9.8583 4.88293 9.06497 5.8596C8.2733 6.83626 8.31497 7.89126 8.3983 10.0013C8.68664 17.2479 10.25 26.3013 18.75 27.1013V32.9913H16.3666C15.9815 32.9915 15.6083 33.1251 15.3105 33.3694C15.0128 33.6137 14.8088 33.9536 14.7333 34.3313L14.4166 35.9079H9.99997C9.66845 35.9079 9.35051 36.0396 9.11609 36.274C8.88166 36.5085 8.74997 36.8264 8.74997 37.1579C8.74997 37.4894 8.88166 37.8074 9.11609 38.0418C9.35051 38.2762 9.66845 38.4079 9.99997 38.4079H30C30.3315 38.4079 30.6494 38.2762 30.8839 38.0418C31.1183 37.8074 31.25 37.4894 31.25 37.1579C31.25 36.8264 31.1183 36.5085 30.8839 36.274C30.6494 36.0396 30.3315 35.9079 30 35.9079H25.5833L25.2666 34.3313C25.1911 33.9536 24.9872 33.6137 24.6894 33.3694C24.3916 33.1251 24.0185 32.9915 23.6333 32.9913H21.25V27.1013C29.75 26.3013 31.315 17.2496 31.6016 10.0013C31.685 7.89126 31.7283 6.8346 30.935 5.8596C30.1416 4.88293 29.1933 4.72293 27.295 4.40293Z" fill="#F2BA2E"/>
</g>
</svg>
